<?xml version="1.0" encoding="UTF-8"?><svg id="Layer_1" xmlns="http://www.w3.org/2000/svg" viewBox="0 0 770 770"><defs><style>.cls-1{fill:#3f3f3f;}.cls-2{fill:#fff;}.cls-3{fill:#ca78ff;}</style></defs><path class="cls-1" d="M281.37,487.61c-.85-1.08-2.86-2.76-6.74-1.83l1.83,7.68c-.29-.07-.69-.23-1.08-.59-.6-.54-.75-1.18-.76-1.36.11,2.59-5.44,13.4-10.8,23.85-16.35,31.85-44.85,87.4-51.21,153.1-17.27,1.49-30.25,16.54-29.09,33.91,1.17,17.59,16.38,30.89,33.97,29.72,17.59-1.17,30.89-16.38,29.72-33.97-1.01-15.07-12.32-26.98-26.59-29.35,6.32-64.02,34.27-118.5,50.32-149.75,10.1-19.67,13.88-27.03,10.44-31.41Z"/><path class="cls-1" d="M520.53,694.97c-1.17-17.59-16.38-30.89-33.97-29.72-9.73.65-18.15,5.6-23.53,12.88-23.1-8.35-40.21-21.44-50.99-39.09-27.5-45-8.2-109.28.05-136.73.92-3.08,1.72-5.74,2.32-7.92l-7.71-2.12c-.58,2.09-1.36,4.71-2.27,7.74-8.55,28.47-28.57,95.15.79,143.2,11.57,18.94,29.63,33,53.85,41.99-1.74,4.31-2.55,9.07-2.22,14.02,1.17,17.59,16.38,30.89,33.97,29.72,17.59-1.17,30.89-16.38,29.72-33.97Z"/><path class="cls-1" d="M222.25,415.36c-1.1-.05-27.22-1.49-55.17-14.41-37.39-17.29-59.73-46.97-64.63-85.84l7.94-1c4.58,36.43,24.71,63.17,59.82,79.48,26.56,12.34,52.19,13.78,52.44,13.79l-.4,7.99Z"/><circle class="cls-3" cx="103.69" cy="301.07" r="24.52"/><path class="cls-1" d="M591.71,415.92c-17.95,0-35.62-4.8-52.54-14.4l3.95-6.96c32,18.17,65.54,18,99.69-.48,25.73-13.93,42.05-33.45,42.21-33.64l6.16,5.1c-.7.85-17.48,20.92-44.57,35.58-18.24,9.87-36.71,14.81-54.91,14.81Z"/><circle class="cls-3" cx="688.1" cy="360.28" r="24.52"/><path class="cls-3" d="M554.76,214.13c238.62,54.1-14.26,65.35-15.94,249.9,0,0,3.25,86.07,3.25,86.07.73,19.4-19.7,32.4-36.96,23.53-127.91-72-154.34-73.35-289.73-17.84-18.22,6.68-36.9-8.73-33.8-27.89l13.79-85.02c28.63-130.38-151.97-206.79-70.28-236.81,68.98-9.04,158.05-17.42,196.93-84.33,125.28-210.15,57.52,33.49,232.75,92.39Z"/><ellipse class="cls-2" cx="293.4" cy="315.4" rx="45.77" ry="67.75" transform="translate(-24.99 25.24) rotate(-4.73)"/><ellipse class="cls-2" cx="433.41" cy="315.71" rx="45.77" ry="67.75" transform="translate(-24.54 36.78) rotate(-4.73)"/><ellipse class="cls-1" cx="289.92" cy="327.12" rx="36.2" ry="51.39" transform="translate(-25.96 25) rotate(-4.73)"/><ellipse class="cls-1" cx="437.32" cy="303.5" rx="36.2" ry="51.39" transform="translate(-23.52 37.06) rotate(-4.73)"/><path class="cls-1" d="M376.34,421.27l-41.17,15.91s31.29,28.81,41.17-15.91Z"/></svg>