<?xml version="1.0" encoding="UTF-8"?><svg id="Layer_1" xmlns="http://www.w3.org/2000/svg" viewBox="0 0 770 770"><defs><style>.cls-1{fill:#3f3f3f;}.cls-2{fill:#699bff;}.cls-3{fill:#fff;}.cls-4{fill:#2c61b5;}</style></defs><path class="cls-1" d="M319.24,690.17c-3.59-12.8-14.5-21.58-26.92-23.08,1.42-44.99,9.45-88.67,15.63-122.27,7.55-41.04,10.59-59.46,3.72-66.24-1.47-1.45-4.09-3.01-8.25-2.18l1.57,7.85c.32-.06.89-.15,1.07.03.58.57,2.33,3.51.83,17.61-1.13,10.64-3.76,24.93-6.8,41.48-6.24,33.95-14.36,78.1-15.77,123.77-1.47.2-2.95.49-4.42.9-16.97,4.76-26.87,22.38-22.11,39.35,4.76,16.97,22.38,26.87,39.35,22.11,16.97-4.76,26.87-22.38,22.11-39.35Z"/><path class="cls-1" d="M534.21,696.66c-1.17-17.59-16.38-30.89-33.97-29.72-1.64.11-3.24.34-4.8.69-28.14-59.15-42.17-105.78-50.92-134.86-7.68-25.52-11.53-38.33-18.71-41.42l-3.16,7.35c3.76,1.62,8.6,17.73,14.21,36.38,8.78,29.19,22.85,75.93,51.01,135.27-11.03,5.63-18.23,17.43-17.35,30.57,1.17,17.59,16.38,30.89,33.97,29.72,17.59-1.17,30.89-16.38,29.72-33.97Z"/><path class="cls-1" d="M212.86,407.7c-8.88,0-20.02-.42-32.38-1.83-27.72-3.16-66.86-12.15-95.94-37.04l5.2-6.08c52.88,45.27,142.55,36.19,143.44,36.1l.86,7.95c-.56.06-8.61.9-21.18.9Z"/><circle class="cls-2" cx="79.99" cy="368.92" r="24.52"/><path class="cls-1" d="M674.21,430.79c-10.55,0-32.2-.63-55.74-4.98-44.28-8.19-72.23-25.03-83.06-50.03l7.34-3.18c23.39,53.98,136.7,50.14,137.84,50.1l.32,7.99c-.33.01-2.73.1-6.7.1Z"/><circle class="cls-2" cx="690.01" cy="426.69" r="24.52"/><path class="cls-2" d="M573.78,219.8c237.11,60.38-15.98,64.96-22.53,249.39,0,0,.97,86.12.97,86.12.22,19.41-20.55,31.87-37.57,22.54-125.97-75.35-152.35-77.4-289.16-25.48-18.39,6.2-36.66-9.7-33.05-28.77l16.02-84.63c32.07-129.58-146.46-210.72-64-238.58,69.19-7.22,158.46-13.24,199.08-79.1,130.78-206.78,56.62,35,230.23,98.5Z"/><ellipse class="cls-3" cx="309.83" cy="314.14" rx="45.77" ry="67.75" transform="translate(-17.12 17.86) rotate(-3.21)"/><ellipse class="cls-3" cx="449.79" cy="318.14" rx="45.77" ry="67.75" transform="translate(-17.13 25.71) rotate(-3.21)"/><ellipse class="cls-1" cx="306.05" cy="325.76" rx="36.2" ry="51.39" transform="translate(-17.78 17.67) rotate(-3.21)"/><ellipse class="cls-1" cx="454.02" cy="306.04" rx="36.2" ry="51.39" transform="translate(-16.44 25.93) rotate(-3.21)"/><ellipse class="cls-4" cx="376.49" cy="412.43" rx="14.04" ry="46.23" transform="translate(-56.38 765.24) rotate(-86.79)"/></svg>