<?xml version="1.0" encoding="UTF-8"?><svg id="Layer_1" xmlns="http://www.w3.org/2000/svg" viewBox="0 0 770 770"><defs><style>.cls-1{fill:#3f3f3f;}.cls-2{fill:#c13d2b;}.cls-3{fill:#ff6e52;}.cls-4{fill:#fff;}</style></defs><path class="cls-1" d="M287.94,576.74c5.2-34.16.24-66.32-14.74-95.58l-7.12,3.65c11.8,23.05,17.06,48.12,15.63,74.54-1.16,21.4-6.68,43.75-16.4,66.43-6.75,15.73-14.73,29.66-21.99,40.8-4.95-2.51-10.61-3.77-16.55-3.38-17.59,1.17-30.89,16.38-29.72,33.97,1.17,17.59,16.38,30.89,33.97,29.72,17.59-1.17,30.89-16.38,29.72-33.97-.58-8.77-4.66-16.48-10.78-21.85,3.19-4.89,6.58-10.4,9.98-16.44,14.7-26.16,24.12-52.36,28.01-77.88Z"/><path class="cls-1" d="M515.98,692.92c-1.04-15.52-13-27.7-27.89-29.54-.83-31.35-15.49-87.27-81.48-174.51l-6.38,4.83c40.32,53.31,65.76,100.69,75.61,140.84,2.01,8.19,3.9,18.47,4.24,28.87-16.62,2.12-28.91,16.84-27.78,33.78,1.17,17.59,16.38,30.89,33.97,29.72,17.59-1.17,30.89-16.38,29.72-33.97Z"/><path class="cls-1" d="M97.48,423.45l-6.83-4.16c.57-.94,14.29-23.22,38.98-41.63,33.02-24.62,69.77-30.11,106.27-15.88l-2.91,7.45c-34.28-13.37-67.45-8.37-98.58,14.84-23.46,17.49-36.79,39.16-36.92,39.37Z"/><circle class="cls-3" cx="94.06" cy="432.83" r="24.52"/><path class="cls-1" d="M661.36,413.23c-25.68-26.24-57.88-35.36-95.71-27.12-28.62,6.23-49.89,20.58-50.11,20.73l-4.51-6.61c.91-.62,22.58-15.27,52.66-21.88,40.23-8.84,75.98,1.29,103.38,29.29l-5.72,5.6Z"/><circle class="cls-3" cx="675.94" cy="409.79" r="24.52"/><path class="cls-3" d="M539.96,203.41c242.65,31.42-8.05,66.41,7.64,250.29,0,0,11.33,85.38,11.33,85.38,2.55,19.24-16.56,34.11-34.58,26.9-134.12-59.65-160.56-58.51-290.13,9.5-17.51,8.37-37.56-5.22-36.27-24.59l5.73-85.94c16.24-132.5-170.75-191.57-92.24-229.14,67.82-15.49,155.71-32.21,188.12-102.48,104.96-221.01,60.42,27.93,240.4,70.08Z"/><ellipse class="cls-4" cx="297.36" cy="313.59" rx="45.77" ry="67.75" transform="translate(-50.49 57.15) rotate(-10.12)"/><ellipse class="cls-4" cx="443.58" cy="313.59" rx="45.77" ry="67.75" transform="translate(-48.21 82.85) rotate(-10.12)"/><ellipse class="cls-1" cx="295" cy="325.58" rx="36.2" ry="51.39" transform="translate(-52.63 56.92) rotate(-10.12)"/><ellipse class="cls-1" cx="446.32" cy="301.07" rx="36.2" ry="51.39" transform="translate(-45.97 83.14) rotate(-10.12)"/><circle class="cls-2" cx="381.27" cy="391.29" r="12.07"/></svg>