<?xml version="1.0" encoding="UTF-8"?><svg id="Layer_1" xmlns="http://www.w3.org/2000/svg" viewBox="0 0 1300 1500"><defs><style>.cls-1{fill:#fff;}.cls-2{fill:#ffd527;}.cls-3{fill:#1f1f1f;}.cls-4{fill:none;stroke:#000;stroke-miterlimit:10;stroke-width:10px;}.cls-5{fill:#ca78ff;}</style></defs><path class="cls-5" d="M723.87,1394.91c-67.62,0-131.93-4.23-191.15-12.58-81.83-11.54-157.09-17.39-223.71-17.39-87.74,0-136.83,10.05-155.71,15,4.06-34.48,18.71-162.55,29.25-302.02,16.54-218.77,15.65-359.97-2.67-419.67-22.25-72.52-14.63-217.6-4.31-326.53,9.96-105.19,24.29-197.71,27.49-217.78,11.46-2.35,47.96-8.84,101.72-8.84,37.4,0,75.93,3.1,114.51,9.21,39.81,6.31,122.91,9.5,246.99,9.5,192.02,0,424.95-7.75,466.96-9.2-2.24,35.62-11.52,199.9,2.34,274.7,7.39,39.9,12.5,158.51,12.16,282.04-.4,141.76-7.63,255.33-19.36,303.79-18.02,74.5-29.29,183.55-34.41,241.93-3.17,36.2-5.73,72.54-7.2,102.33-1.08,21.82-1.33,33.27-1.12,39.53-30.09,6.28-181.91,35.99-361.76,35.99Z"/><path class="cls-3" d="M304.77,111.09c37.09,0,75.3,3.07,113.57,9.14,40.12,6.36,123.54,9.58,247.93,9.58,183.7,0,404.8-7.09,460.57-8.98-2.75,46.09-10.42,198.03,2.83,269.56,7.33,39.58,12.4,157.73,12.06,280.93-.4,141.32-7.57,254.36-19.19,302.4-18.12,74.88-29.42,184.27-34.55,242.81-3.18,36.27-5.74,72.69-7.22,102.56-.83,16.74-1.2,27.66-1.2,34.95-38.91,7.89-184.53,34.87-355.68,34.87-67.34,0-131.37-4.21-190.32-12.52-82.1-11.58-157.65-17.45-224.55-17.45-77.29,0-125.09,7.81-148.75,13.16,5.09-43.89,18.46-163.87,28.28-293.72,16.6-219.52,15.62-361.46-2.92-421.88-17.38-56.64-18.79-168.7-4.09-324.07,9.38-99.05,22.64-186.91,26.8-213.4,14.42-2.71,48.46-7.93,96.44-7.93M304.77,99.09c-66.96,0-106.99,9.86-106.99,9.86,0,0-67.28,408.85-23.64,551.06s-27.88,728.25-27.88,728.25c0,0,48.48-17.33,162.74-17.33,57.13,0,130.71,4.33,222.87,17.33,64.84,9.14,130.09,12.64,191.99,12.64,197.51,0,360.94-35.63,368.24-37.24-3.52-4.61,10.33-255.9,42.08-387.12,27.09-111.96,22.57-505.76,7.27-588.33-15.29-82.57-1.82-279.83-1.82-279.83,0,0-260.21,9.43-473.38,9.43-106.57,0-201.4-2.36-246.05-9.43-43.86-6.95-82.84-9.28-115.44-9.28h0ZM1092.37,1363.61s-.09.02-.26.06c.03.04.07.06.1.06.05,0,.1-.04.15-.12h0Z"/><path class="cls-1" d="M718.12,1346.69c-62.45,0-121.84-3.91-176.54-11.62-75.36-10.63-144.66-16.01-206-16.01-85.84,0-131.3,10.42-145.95,14.55,3.15-26.59,17.26-148.36,27.32-281.39,15.24-201.47,14.44-331.42-2.38-386.21-20.62-67.19-13.58-201.25-4.05-301.88,9.45-99.73,23.15-187.12,25.58-202.32,8.86-1.89,43.47-8.49,95.58-8.49,34.59,0,70.22,2.87,105.9,8.52,36.61,5.8,113.12,8.74,227.43,8.74,180.83,0,401-7.45,432.75-8.56-1.68,26.83-10.9,185.5,1.98,255.03,6.83,36.9,11.56,146.43,11.24,260.44-.37,132.82-6.9,235.09-17.91,280.59-16.59,68.57-26.97,169.01-31.68,222.78-2.92,33.35-5.28,66.83-6.64,94.28-1.12,22.73-1.23,33.07-.94,37.98-23.25,4.92-165.96,33.59-335.69,33.59Z"/><path class="cls-3" d="M331.67,156.81c34.41,0,69.86,2.85,105.35,8.47,36.78,5.83,113.49,8.78,227.97,8.78,174.76,0,386.25-6.96,429.01-8.43-2.22,35.95-10.33,183.97,2.28,252.04,6.8,36.71,11.5,145.97,11.18,259.79-.17,60.12-1.7,116.63-4.43,163.41-3.11,53.38-7.62,92.53-13.38,116.37-16.64,68.79-27.04,169.43-31.76,223.29-2.93,33.39-5.29,66.92-6.65,94.41-.92,18.65-1.21,29.18-1.08,35.33-30.34,6.28-168.64,32.91-332.06,32.91-62.29,0-121.52-3.9-176.05-11.59-75.51-10.65-144.99-16.05-206.48-16.05-77.95,0-122.97,8.6-141.87,13.35,4.06-34.66,17.21-150.5,26.73-276.42,6.66-88.11,10.28-163.86,10.74-225.16.58-77.13-3.88-131.76-13.27-162.35-20.45-66.62-13.42-200.15-3.92-300.44,9.02-95.32,21.95-179.39,25.18-199.79,11.49-2.3,44.51-7.92,92.5-7.92M331.67,149.81c-61.74,0-98.66,9.09-98.66,9.09,0,0-62.04,376.99-21.8,508.12,40.24,131.13-25.71,671.5-25.71,671.5,0,0,44.7-15.98,150.06-15.98,52.68,0,120.52,4,205.51,15.98,59.79,8.43,119.95,11.66,177.03,11.66,182.12,0,332.82-32.85,339.55-34.34-3.24-4.25,9.52-235.96,38.8-356.95,24.98-103.23,20.81-466.35,6.71-542.49-14.1-76.14-1.68-258.03-1.68-258.03,0,0-239.94,8.69-436.49,8.69-98.27,0-185.71-2.17-226.88-8.69-40.44-6.41-76.39-8.56-106.45-8.56h0ZM1057.9,1315.79s-.08.02-.24.05c.03.04.06.06.09.06.04,0,.09-.04.14-.11h0Z"/><path class="cls-3" d="M878.67,312.87l22.92,17.04c1.51,1.1,1.65,2.47.69,3.57l-4.12,5.36c-.96,1.1-2.06,1.1-3.02.27l-21.82-16.07-21.82,16.21c-.96.82-2.06.82-3.02-.27l-4.26-5.5c-.96-1.1-.55-2.2.82-3.43l22.79-16.9v-25.28c0-1.79.55-2.61,2.33-2.61h6.18c1.78,0,2.33.82,2.33,2.61v25ZM873.73,373.59c0-14.43,9.75-22.94,22.1-22.94h10.98c12.35,0,22.1,8.52,22.1,22.94-.27,14.15-10.02,22.67-21.82,22.39h-11.53c-11.8.27-21.55-8.24-21.82-22.39ZM884.44,373.59c0,7.69,4.26,12.23,11.26,12.23h11.26c7,0,11.26-4.53,11.26-12.23s-4.26-12.5-11.53-12.5h-10.71c-7.27,0-11.53,4.81-11.53,12.5ZM929.32,314.24v27.07c0,1.37-.55,2.61-2.06,2.61h-6.73c-1.51,0-2.06-.82-2.06-2.2v-57.84c0-1.79.55-2.47,2.33-2.47h6.18c1.78,0,2.33.82,2.33,2.61v19.78h11.26c1.24,0,1.92.69,1.92,1.92v6.73c0,1.24-.69,1.79-2.06,1.79h-11.12Z"/><path class="cls-2" d="M301.57,377.45c-5.55-9.96-16.43-25.95-33.85-37.36,16.2-7.08,27.63-26.82,33.95-40.76,6.71,24.85,24.44,35.94,34.65,40.38-10.33,5.78-28.29,18.24-34.75,37.74Z"/><path class="cls-3" d="M306.85,296.21h0,0M301.08,308.52c6.84,16.72,18.64,26.27,27.97,31.48-9.34,6.02-21.28,15.83-28.06,29.65-5.65-8.87-14.35-19.99-26.59-29.16,11.7-7.31,20.6-20.4,26.68-31.98M302.12,292.35c-.7,0-1.4.37-1.73,1.16-5.16,12.36-17.92,38.16-36.65,44.36-1.61.53-1.88,2.69-.43,3.57,21.92,13.28,33.78,34.35,37.93,42.94.22.45.63.66,1.05.66.52,0,1.05-.34,1.17-.96,1.62-8.42,8.47-28,37.52-42.89,1.47-.75,1.34-2.91-.2-3.47-9.44-3.45-30.92-14.39-36.76-43.83-.2-1-1.04-1.54-1.88-1.54h0Z"/><path class="cls-2" d="M1014.6,377.45c-5.55-9.97-16.43-25.95-33.85-37.36,16.21-7.08,27.63-26.82,33.95-40.76,6.71,24.86,24.44,35.94,34.65,40.38-10.33,5.78-28.29,18.24-34.75,37.74Z"/><path class="cls-3" d="M1019.88,296.21h0,0M1014.11,308.52c6.84,16.72,18.64,26.26,27.97,31.48-9.34,6.02-21.28,15.83-28.06,29.65-5.65-8.87-14.35-19.99-26.59-29.16,11.7-7.31,20.6-20.4,26.68-31.98M1015.15,292.36c-.7,0-1.4.37-1.73,1.16-5.16,12.36-17.92,38.16-36.65,44.36-1.61.53-1.88,2.69-.43,3.57,21.92,13.28,33.78,34.35,37.93,42.94.22.45.63.66,1.05.66.52,0,1.05-.34,1.17-.96,1.62-8.42,8.47-28,37.52-42.89,1.47-.75,1.34-2.91-.2-3.47-9.44-3.45-30.92-14.39-36.76-43.83-.2-1-1.04-1.54-1.88-1.54h0Z"/><path class="cls-2" d="M312.09,1242.21c-4.37-7.49-12.17-18.34-24.07-26.51,11.2-5.61,19.29-18.8,24.15-29,5.28,16.78,17.13,24.97,24.9,28.67-7.82,4.59-19.82,13.46-24.97,26.85Z"/><path class="cls-3" d="M317.82,1182.62h0,0M311.74,1195.1c4.91,10.1,12.16,16.52,18.48,20.48-6.33,4.38-13.65,10.81-18.55,19.4-4.08-6-9.8-12.95-17.4-19.01,7.35-5.26,13.17-13.27,17.47-20.87M312.68,1179.03c-.54,0-1.07.29-1.33.89-3.95,9.46-13.71,29.21-28.05,33.95-1.23.41-1.44,2.06-.33,2.73,16.78,10.16,25.86,26.29,29.03,32.87.17.34.48.51.8.51.4,0,.8-.26.89-.74,1.24-6.44,6.48-21.43,28.72-32.83,1.12-.58,1.03-2.22-.16-2.66-7.23-2.64-23.66-11.01-28.14-33.55-.15-.77-.79-1.18-1.44-1.18h0Z"/><path class="cls-2" d="M956.13,1242.21c-4.37-7.49-12.17-18.34-24.07-26.51,11.2-5.61,19.29-18.8,24.15-29,5.28,16.78,17.13,24.97,24.9,28.67-7.82,4.59-19.82,13.46-24.97,26.85Z"/><path class="cls-3" d="M961.86,1182.62h0,0M955.78,1195.1c4.91,10.1,12.16,16.52,18.48,20.48-6.33,4.38-13.65,10.81-18.55,19.4-4.08-6-9.8-12.95-17.4-19.01,7.35-5.26,13.17-13.27,17.47-20.87M956.73,1179.03c-.54,0-1.07.29-1.33.89-3.95,9.46-13.71,29.21-28.05,33.95-1.23.41-1.44,2.06-.33,2.73,16.78,10.16,25.86,26.29,29.03,32.87.17.34.48.51.8.51.4,0,.8-.26.89-.74,1.24-6.44,6.48-21.43,28.72-32.83,1.12-.58,1.03-2.22-.16-2.66-7.23-2.64-23.66-11.01-28.14-33.55-.15-.77-.79-1.18-1.44-1.18h0Z"/><path d="M583.81,790.72c6.58,0,9.02,3.22,9.02,7.3v9.94c-.1,3.89-2.64,7.2-9.12,7.2-6.58-.1-9.12-3.31-9.02-7.2v-9.94c0-4.08,2.54-7.3,9.12-7.3ZM583.76,794.13c-3.98,0-5.23,2.06-5.23,3.94v9.89c0,1.78,1.25,3.7,5.23,3.79,3.89,0,5.23-1.97,5.23-3.79v-9.89c0-1.82-1.25-3.94-5.23-3.94ZM604.12,819c0,.48-.19.91-.72.91h-2.35c-.53,0-.72-.29-.72-.77v-29.76c0-.62.19-.91.82-.91h2.16c.62,0,.82.29.82.91v29.62Z"/><path d="M634.11,803.11l8.4,6.48c.53.38.58.86.24,1.25l-1.44,1.87c-.34.38-.72.38-1.06.1l-8.02-6.14-8.02,6.19c-.34.29-.72.29-1.06-.1l-1.49-1.92c-.34-.38-.19-.77.29-1.2l8.35-6.43v-10.85c0-.62.19-.91.82-.91h2.16c.62,0,.82.29.82.91v10.75ZM651.83,804.74v14.26c0,.48-.19.91-.72.91h-2.35c-.53,0-.72-.29-.72-.77v-29.76c0-.62.19-.91.82-.91h2.16c.62,0,.82.29.82.91v11.71h3.94c.43,0,.67.24.67.67v2.35c0,.43-.24.62-.72.62h-3.89Z"/><path d="M674.96,789.86h-13.11c-.48,0-.72-.19-.72-.62v-2.35c0-.43.24-.67.67-.67h16.27c.43,0,.67.24.67.67v10.08c0,.48-.19.91-.72.91h-13.35v4.9h13.83c.43,0,.67.24.67.67v2.35c0,.43-.24.62-.72.62h-16.85c-.48,0-.72-.19-.72-.62v-10.66c0-.62.19-.91.82-.91h13.25v-4.37ZM671.94,824.95c-.62,0-.91-.34-.91-.91v-13.83c0-.62.19-.91.82-.91h16.56c.62,0,.82.29.82.91v13.83c0,.58-.29.91-.91.91h-16.37ZM674.87,821.3h10.56v-8.35h-10.56v8.35ZM689.27,796.53v9.46c0,.48-.19.91-.72.91h-2.35c-.53,0-.72-.29-.72-.77v-20.21c0-.62.19-.86.82-.86h2.16c.62,0,.82.29.82.91v6.91h3.94c.43,0,.67.24.67.67v2.35c0,.43-.24.62-.72.62h-3.89Z"/><path d="M698.82,805.84h26.45c.43,0,.67.24.67.67v2.4c0,.43-.24.62-.72.62h-26.45c-.48,0-.72-.29-.72-.72v-2.21c0-.53.19-.77.77-.77ZM710.1,784.72h3.74c5.33,0,8.78,2.88,8.78,8.54s-3.5,8.35-8.78,8.35h-3.74c-5.23,0-8.69-2.83-8.69-8.35s3.41-8.54,8.69-8.54ZM702.13,824.37v-10.51c0-.62.19-.91.82-.91h2.16c.62,0,.82.29.82.91v7.49h15.79c.43,0,.67.24.67.67v2.35c0,.43-.24.62-.72.62h-18.82c-.48,0-.72-.19-.72-.62ZM705.34,793.27c0,3.07,1.58,4.8,4.56,4.8h4.13c3.02,0,4.66-1.73,4.66-4.8s-1.73-4.9-4.75-4.9h-3.94c-2.98,0-4.66,1.82-4.66,4.9Z"/><path d="M382.21,1122.33c0,.48-.19.91-.72.91h-2.35c-.53,0-.72-.29-.72-.77v-9.26h-11.47c-.48,0-.72-.29-.72-.72v-2.21c0-.53.19-.77.77-.77h26.45c.43,0,.67.24.67.67v2.4c0,.43-.24.62-.72.62h-11.19v9.12ZM389.12,1105.05h-17.91c-.62,0-.91-.34-.91-.91v-16.51c0-.62.19-.86.82-.86h2.21c.62,0,.82.24.82.86v4.46h12.1v-4.46c0-.62.19-.86.82-.86h2.16c.62,0,.82.24.82.86v16.51c0,.58-.29.91-.91.91ZM374.15,1101.4h12.1v-5.66h-12.1v5.66Z"/><path d="M417.11,1115.23c0,.48-.19.91-.72.91h-2.35c-.53,0-.72-.29-.72-.77v-6.43h-12.29c-.48,0-.72-.29-.72-.72v-2.21c0-.53.19-.77.77-.77h26.45c.43,0,.67.24.67.67v2.4c0,.43-.24.62-.72.62h-10.37v6.29ZM405.3,1100.49c-.62,0-.91-.34-.91-.91v-13.97c0-.62.19-.91.82-.91h18.1c.62,0,.82.29.82.91v13.97c0,.58-.29.91-.91.91h-17.91ZM404.39,1124.01v-10.51c0-.62.19-.91.82-.91h2.16c.62,0,.82.29.82.91v7.49h15.79c.43,0,.67.24.67.67v2.35c0,.43-.24.62-.72.62h-18.82c-.48,0-.72-.19-.72-.62ZM408.23,1096.84h12.1v-8.5h-12.1v8.5Z"/><path d="M441.78,1090.36c5.76,0,8.02,3.07,8.02,7.39v1.54h4.42v-10.27c0-.62.19-.91.82-.91h2.16c.62,0,.82.29.82.91v29.62c0,.48-.19.91-.72.91h-2.35c-.53,0-.72-.38-.72-.91v-15.7h-4.42v4.8c0,4.22-2.35,7.2-8.02,7.2s-8.02-2.98-8.02-7.2v-9.99c0-4.32,2.26-7.39,8.02-7.39ZM437.6,1097.66v10.08c0,2.54,1.44,3.65,4.18,3.65s4.18-1.1,4.18-3.65v-10.08c0-2.26-1.44-3.74-4.18-3.74s-4.13,1.49-4.18,3.74ZM465.2,1119.55h-2.35c-.53,0-.72-.38-.72-.91v-29.62c0-.62.19-.91.82-.91h2.16c.62,0,.82.29.82.91v29.62c0,.48-.19.91-.72.91Z"/><path d="M483.73,1102.75l8.4,6.48c.53.38.58.86.24,1.25l-1.44,1.87c-.34.38-.72.38-1.06.1l-8.02-6.14-8.02,6.19c-.34.29-.72.29-1.06-.1l-1.49-1.92c-.34-.38-.19-.77.29-1.2l8.35-6.43v-10.85c0-.62.19-.91.82-.91h2.16c.62,0,.82.29.82.91v10.75ZM501.73,1119.55h-2.35c-.53,0-.72-.38-.72-.91v-16.9h-7.49c-.58,0-.86-.19-.86-.82v-1.97c0-.58.34-.86.86-.86h7.49v-9.07c0-.62.19-.91.82-.91h2.16c.62,0,.82.29.82.91v29.62c0,.48-.19.91-.72.91Z"/><path d="M537.44,1122.33c0,.48-.19.91-.72.91h-2.35c-.53,0-.72-.29-.72-.77v-9.26h-11.47c-.48,0-.72-.29-.72-.72v-2.21c0-.53.19-.77.77-.77h26.45c.43,0,.67.24.67.67v2.4c0,.43-.24.62-.72.62h-11.19v9.12ZM533.22,1086.9h4.46c5.47.05,8.64,3.36,8.59,9.07,0,5.66-3.22,8.88-8.69,8.88h-4.27c-5.47,0-8.69-3.22-8.69-8.88-.05-5.71,3.12-9.03,8.59-9.07ZM528.47,1095.98c0,3.89,2.06,5.28,4.85,5.33h4.27c2.78-.05,4.85-1.44,4.85-5.33.05-3.89-2.06-5.47-4.85-5.52h-4.27c-2.78.05-4.9,1.63-4.85,5.52Z"/><path d="M571.52,1122.33c0,.48-.19.91-.72.91h-2.35c-.53,0-.72-.29-.72-.77v-9.26h-11.47c-.48,0-.72-.29-.72-.72v-2.21c0-.53.19-.77.77-.77h26.45c.43,0,.67.24.67.67v2.4c0,.43-.24.62-.72.62h-11.19v9.12ZM571.38,1095.16l9.07,6.38c.53.38.58.86.24,1.25l-1.54,1.87c-.34.38-.72.38-1.06.1l-8.54-6.05-8.64,6.1c-.34.29-.72.29-1.06-.1l-1.58-1.92c-.34-.38-.19-.77.29-1.2l9.02-6.38v-7.87c0-.62.19-.91.82-.91h2.16c.62,0,.82.29.82.91v7.83Z"/><path d="M591.73,1091.22h-2.64c-.48,0-.72-.29-.72-.72v-2.21c0-.53.19-.77.77-.77h7.63v-2.78c0-.62.19-.91.82-.91h2.16c.62,0,.82.29.82.91v2.78h7.78c.43,0,.67.24.67.67v2.4c0,.43-.24.62-.72.62h-2.64c1.2,1.15,1.82,2.69,1.82,4.51v3.55c-.1,3.94-3.07,7.49-8.93,7.49-5.95-.1-8.74-3.65-8.64-7.58v-3.46c0-1.82.58-3.36,1.82-4.51ZM593.65,1095.74v3.46c0,2.3,1.63,4.08,4.9,4.13,3.17.05,5.18-1.73,5.18-4.03v-3.55c0-2.3-1.78-4.18-5.04-4.18s-5.04,1.87-5.04,4.18ZM600.08,1123.53v-12.43c0-.62.19-.91.82-.91h2.16c.62,0,.82.29.82.91v9.41h13.59c.43,0,.67.24.67.67v2.35c0,.43-.24.62-.72.62h-16.61c-.48,0-.72-.19-.72-.62ZM618.27,1096.89v13.15c0,.48-.19.91-.72.91h-2.35c-.53,0-.72-.29-.72-.77v-24.63c0-.62.19-.86.82-.86h2.16c.62,0,.82.29.82.91v7.63h3.94c.43,0,.67.24.67.67v2.35c0,.43-.24.62-.72.62h-3.89Z"/><path d="M650.19,1095.69l8.02,5.95c.53.38.58.86.24,1.25l-1.44,1.87c-.34.38-.72.38-1.06.1l-7.63-5.62-7.63,5.67c-.34.29-.72.29-1.06-.1l-1.49-1.92c-.34-.38-.19-.77.29-1.2l7.97-5.9v-8.83c0-.62.19-.91.82-.91h2.16c.62,0,.82.29.82.91v8.74ZM649.43,1116.91c0-5.04,3.41-8.02,7.73-8.02h3.84c4.32,0,7.73,2.98,7.73,8.02-.1,4.94-3.5,7.92-7.63,7.82h-4.03c-4.13.1-7.54-2.88-7.63-7.82ZM653.17,1116.91c0,2.69,1.49,4.27,3.94,4.27h3.94c2.45,0,3.94-1.58,3.94-4.27s-1.49-4.37-4.03-4.37h-3.74c-2.54,0-4.03,1.68-4.03,4.37ZM668.19,1106.11h-2.35c-.53,0-.72-.38-.72-.91v-10.08h-7.54c-.48,0-.82-.29-.82-.72v-2.26c0-.43.34-.77.77-.77h7.58v-5.76c0-.62.19-.91.82-.91h2.16c.62,0,.82.29.82.91v19.59c0,.48-.19.91-.72.91Z"/><path d="M686.67,1096.55l8.06,5.67c.53.38.58.86.24,1.25l-1.44,1.78c-.34.38-.72.38-1.06.1l-7.68-5.33-7.68,5.38c-.34.29-.72.29-1.06-.1l-1.44-1.82c-.34-.38-.19-.77.29-1.2l7.97-5.62v-6.43h-6.72c-.48,0-.72-.29-.72-.72v-2.21c0-.53.19-.77.77-.77h17.28c.43,0,.67.24.67.67v2.4c0,.43-.24.62-.72.62h-6.77v6.34ZM701.51,1112.54h-12.96c-.48,0-.72-.19-.72-.62v-2.35c0-.43.24-.67.67-.67h16.13c.43,0,.67.24.67.67v14.26c0,.48-.19.91-.72.91h-2.35c-.53,0-.72-.38-.72-.91v-11.28ZM704.67,1106.11h-2.35c-.53,0-.72-.38-.72-.91v-7.97h-7.06c-.48,0-.82-.29-.82-.72v-2.26c0-.43.34-.77.77-.77h7.1v-7.87c0-.62.19-.91.82-.91h2.16c.62,0,.82.29.82.91v19.59c0,.48-.19.91-.72.91Z"/><path d="M712.98,1101.83h26.45c.43,0,.67.24.67.67v2.4c0,.43-.24.62-.72.62h-26.45c-.48,0-.72-.29-.72-.72v-2.21c0-.53.19-.77.77-.77ZM736.69,1091.8c0,4.66-3.02,7.3-8.78,7.3h-3.74c-5.76,0-8.69-2.83-8.69-7.3,0-4.85,3.22-7.49,8.69-7.49h3.74c5.47,0,8.78,2.69,8.78,7.49ZM731.75,1112.15h-14.74c-.48,0-.72-.14-.72-.53v-2.26c0-.43.24-.67.67-.67h17.95c.43,0,.67.24.67.67v8.3c0,.43-.19.82-.72.82h-14.83v3.22h15.31c.43,0,.67.24.67.67v2.26c0,.38-.24.53-.72.53h-18.39c-.48,0-.72-.29-.72-.77v-8.45c0-.62.19-.91.82-.91h14.74v-2.88ZM719.41,1091.8c0,2.54,1.78,3.94,4.51,3.94h4.22c2.78,0,4.61-1.39,4.61-3.94s-1.92-3.98-4.7-3.98h-4.03c-2.74,0-4.61,1.44-4.61,3.98Z"/><path d="M772.83,1095.07h-13.54c-.48,0-.72-.19-.72-.62v-2.45c0-.43.24-.67.67-.67h16.71c.43,0,.67.24.67.67v21.07c0,.48-.19.91-.72.91h-2.35c-.53,0-.72-.38-.72-.91v-18ZM787.43,1119.55h-2.35c-.53,0-.72-.38-.72-.91v-15.7h-4.75c-.48,0-.72-.19-.72-.62v-2.35c0-.43.24-.67.67-.67h4.8v-10.27c0-.62.19-.91.82-.91h2.16c.62,0,.82.29.82.91v29.62c0,.48-.19.91-.72.91Z"/><path d="M810.94,1122.33c0,.48-.19.91-.72.91h-2.35c-.53,0-.72-.29-.72-.77v-9.26h-11.47c-.48,0-.72-.29-.72-.72v-2.21c0-.53.19-.77.77-.77h26.45c.43,0,.67.24.67.67v2.4c0,.43-.24.62-.72.62h-11.19v9.12ZM798.8,1103.99v-16.08c0-.62.14-.86.77-.86h18.58c.43,0,.67.24.67.67v2.4c0,.43-.24.62-.72.62h-15.51v10.27h15.6c.43,0,.67.24.67.67v2.45c0,.43-.24.62-.72.62h-18.48c-.58,0-.86-.19-.86-.77Z"/><path d="M838.35,1085.46c6.58,0,9.02,3.22,9.02,7.25v5.47c-.1,3.89-2.64,7.2-9.12,7.2-6.58-.1-9.12-3.31-9.02-7.2v-5.42c0-4.08,2.54-7.3,9.12-7.3ZM847.38,1124.88c-.29.29-.62.29-.91,0l-5.47-5.14-5.52,5.14c-.38.34-.62.24-.91,0l-1.63-1.82c-.38-.38-.38-.82-.05-1.15l6.24-5.76v-6.1c0-.62.19-.91.82-.91h2.16c.62,0,.82.29.82.91v6.14l3.98,3.89,4.08-3.94v-6.1c0-.62.19-.91.82-.91h2.16c.62,0,.82.29.82.91v6.1l6.29,5.81c.34.34.34.67.05,1.06l-1.63,1.82c-.29.24-.62.29-.96,0l-5.66-5.09-5.47,5.14ZM838.3,1088.87c-3.98,0-5.23,2.06-5.23,3.94v5.33c0,1.82,1.25,3.74,5.23,3.84,3.89,0,5.23-1.97,5.23-3.84v-5.33c0-1.82-1.25-3.94-5.23-3.94ZM857.98,1106.59h-2.35c-.53,0-.72-.38-.72-.91v-8.54h-5.14c-.48,0-.72-.19-.72-.62v-2.35c0-.43.24-.67.67-.67h5.18v-7.87c0-.62.19-.91.82-.91h2.16c.62,0,.82.29.82.91v20.07c0,.48-.19.91-.72.91Z"/><path d="M879.87,1095.07h-13.54c-.48,0-.72-.19-.72-.62v-2.45c0-.43.24-.67.67-.67h16.71c.43,0,.67.24.67.67v21.07c0,.48-.19.91-.72.91h-2.35c-.53,0-.72-.38-.72-.91v-18ZM895.14,1118.63c0,.48-.19.91-.72.91h-2.35c-.53,0-.72-.29-.72-.77v-29.76c0-.62.19-.91.82-.91h2.16c.62,0,.82.29.82.91v29.62Z"/><path d="M909.39,1090.36c5.76,0,8.02,3.07,8.02,7.39v1.54h4.42v-10.27c0-.62.19-.91.82-.91h2.16c.62,0,.82.29.82.91v29.62c0,.48-.19.91-.72.91h-2.35c-.53,0-.72-.38-.72-.91v-15.7h-4.42v4.8c0,4.22-2.35,7.2-8.02,7.2s-8.02-2.98-8.02-7.2v-9.99c0-4.32,2.26-7.39,8.02-7.39ZM905.21,1097.66v10.08c0,2.54,1.44,3.65,4.18,3.65s4.18-1.1,4.18-3.65v-10.08c0-2.26-1.44-3.74-4.18-3.74s-4.13,1.49-4.18,3.74ZM932.82,1119.55h-2.35c-.53,0-.72-.38-.72-.91v-29.62c0-.62.19-.91.82-.91h2.16c.62,0,.82.29.82.91v29.62c0,.48-.19.91-.72.91Z"/><path d="M542.43,1147.96c6.58,0,9.02,3.22,9.02,7.3v9.94c-.1,3.89-2.64,7.2-9.12,7.2-6.58-.1-9.12-3.31-9.02-7.2v-9.94c0-4.08,2.54-7.3,9.12-7.3ZM542.39,1151.37c-3.98,0-5.23,2.06-5.23,3.94v9.89c0,1.78,1.25,3.7,5.23,3.79,3.89,0,5.23-1.97,5.23-3.79v-9.89c0-1.82-1.25-3.94-5.23-3.94ZM562.74,1176.23c0,.48-.19.91-.72.91h-2.35c-.53,0-.72-.29-.72-.77v-29.76c0-.62.19-.91.82-.91h2.16c.62,0,.82.29.82.91v29.62Z"/><path d="M592.74,1153.29l8.02,5.95c.53.38.58.86.24,1.25l-1.44,1.87c-.34.38-.72.38-1.06.1l-7.63-5.62-7.63,5.67c-.34.29-.72.29-1.06-.1l-1.49-1.92c-.34-.38-.19-.77.29-1.2l7.97-5.9v-8.83c0-.62.19-.91.82-.91h2.16c.62,0,.82.29.82.91v8.74ZM591.01,1174.51c0-5.04,3.41-8.02,7.73-8.02h3.84c4.32,0,7.73,2.98,7.73,8.02-.1,4.94-3.5,7.92-7.63,7.82h-4.03c-4.13.1-7.54-2.88-7.63-7.82ZM594.75,1174.51c0,2.69,1.49,4.27,3.94,4.27h3.94c2.45,0,3.94-1.58,3.94-4.27s-1.49-4.37-4.03-4.37h-3.74c-2.54,0-4.03,1.68-4.03,4.37ZM610.45,1153.77v9.46c0,.48-.19.91-.72.91h-2.35c-.53,0-.72-.29-.72-.77v-20.21c0-.62.19-.86.82-.86h2.16c.62,0,.82.29.82.91v6.91h3.94c.43,0,.67.24.67.67v2.35c0,.43-.24.62-.72.62h-3.89Z"/><path d="M620,1159.43h26.45c.43,0,.67.24.67.67v2.4c0,.43-.24.62-.72.62h-26.45c-.48,0-.72-.29-.72-.72v-2.21c0-.53.19-.77.77-.77ZM643.71,1149.4c0,4.66-3.02,7.3-8.78,7.3h-3.74c-5.76,0-8.69-2.83-8.69-7.3,0-4.85,3.22-7.49,8.69-7.49h3.74c5.47,0,8.78,2.69,8.78,7.49ZM638.77,1169.75h-14.74c-.48,0-.72-.14-.72-.53v-2.26c0-.43.24-.67.67-.67h17.95c.43,0,.67.24.67.67v8.3c0,.43-.19.82-.72.82h-14.83v3.22h15.31c.43,0,.67.24.67.67v2.26c0,.38-.24.53-.72.53h-18.39c-.48,0-.72-.29-.72-.77v-8.45c0-.62.19-.91.82-.91h14.74v-2.88ZM626.43,1149.4c0,2.54,1.78,3.94,4.51,3.94h4.22c2.78,0,4.61-1.39,4.61-3.94s-1.92-3.98-4.7-3.98h-4.03c-2.74,0-4.61,1.44-4.61,3.98Z"/><path d="M681.49,1179.93c0,.48-.19.91-.72.91h-2.35c-.53,0-.72-.29-.72-.77v-9.26h-11.47c-.48,0-.72-.29-.72-.72v-2.21c0-.53.19-.77.77-.77h26.45c.43,0,.67.24.67.67v2.4c0,.43-.24.62-.72.62h-11.19v9.12ZM681.35,1152.76l9.07,6.38c.53.38.58.86.24,1.25l-1.54,1.87c-.34.38-.72.38-1.06.1l-8.54-6.05-8.64,6.1c-.34.29-.72.29-1.06-.1l-1.58-1.92c-.34-.38-.19-.77.29-1.2l9.02-6.38v-7.87c0-.62.19-.91.82-.91h2.16c.62,0,.82.29.82.91v7.83Z"/><path d="M708.9,1147.96c6.58,0,9.02,3.22,9.02,7.3v9.94c-.1,3.89-2.64,7.2-9.12,7.2-6.58-.1-9.12-3.31-9.02-7.2v-9.94c0-4.08,2.54-7.3,9.12-7.3ZM708.85,1151.37c-3.98,0-5.23,2.06-5.23,3.94v9.89c0,1.78,1.25,3.7,5.23,3.79,3.89,0,5.23-1.97,5.23-3.79v-9.89c0-1.82-1.25-3.94-5.23-3.94ZM728.53,1177.15h-2.35c-.53,0-.72-.38-.72-.91v-9.46h-4.75c-.48,0-.72-.19-.72-.62v-2.35c0-.43.24-.67.67-.67h4.8v-6.53h-4.75c-.48,0-.72-.19-.72-.62v-2.35c0-.43.24-.67.67-.67h4.8v-6.34c0-.62.19-.91.82-.91h2.16c.62,0,.82.29.82.91v29.62c0,.48-.19.91-.72.91Z"/><path d="M738.18,1148.82h-2.64c-.48,0-.72-.29-.72-.72v-2.21c0-.53.19-.77.77-.77h7.63v-2.78c0-.62.19-.91.82-.91h2.16c.62,0,.82.29.82.91v2.78h7.78c.43,0,.67.24.67.67v2.4c0,.43-.24.62-.72.62h-2.64c1.2,1.15,1.78,2.69,1.78,4.51v2.78c-.1,3.94-3.02,7.49-8.88,7.49-5.95-.1-8.74-3.65-8.64-7.58v-2.69c0-1.82.58-3.36,1.82-4.51ZM740.1,1153.34v2.69c0,2.3,1.63,4.08,4.9,4.13,3.17.05,5.14-1.73,5.14-4.03v-2.78c0-2.3-1.73-4.18-4.99-4.18s-5.04,1.87-5.04,4.18ZM747.39,1182.19c-.62,0-.91-.34-.91-.91v-13.83c0-.62.19-.91.82-.91h16.56c.62,0,.82.29.82.91v13.83c0,.58-.29.91-.91.91h-16.37ZM750.32,1178.54h10.56v-8.35h-10.56v8.35ZM764.72,1153.77v9.46c0,.48-.19.91-.72.91h-2.35c-.53,0-.72-.29-.72-.77v-20.21c0-.62.19-.86.82-.86h2.16c.62,0,.82.29.82.91v6.91h3.94c.43,0,.67.24.67.67v2.35c0,.43-.24.62-.72.62h-3.89Z"/><line class="cls-4" x1="407.83" y1="423" x2="805.05" y2="423"/></svg>