<?xml version="1.0" encoding="UTF-8"?><svg id="Layer_1" xmlns="http://www.w3.org/2000/svg" viewBox="0 0 770 770"><defs><style>.cls-1{fill:#3f3f3f;}.cls-2{fill:#ffce00;}.cls-3{fill:#ef9116;}.cls-4{fill:#fff;}</style></defs><path class="cls-1" d="M245.68,556.81c19.17-37,44.85-62.86,47.83-65.24-.16.12-1.01.75-2.31.75v-8c-1.42,0-2.77,0-13.96,12.63-5.88,6.64-14.83,17.46-24.03,31.35-16.58,25.03-27.9,50.49-33.64,75.68-5.15,22.59-5.68,44.61-1.61,65.79-11.84,5.3-19.72,17.56-18.81,31.26,1.17,17.59,16.38,30.89,33.97,29.72,17.59-1.17,30.89-16.38,29.72-33.97-1.17-17.59-16.38-30.89-33.97-29.72-1.08.07-2.15.2-3.19.37-2.75-14.8-3.16-30.03-1.18-45.56,2.71-21.26,9.83-43.15,21.18-65.06Z"/><path class="cls-1" d="M536.17,693.63c-1.17-17.59-16.38-30.89-33.97-29.72-3.14.21-6.14.87-8.95,1.91-32.1-45.42-52.71-86.16-61.34-121.34-3.43-13.99-6.57-34.1-2.07-50.44.33-1.2.78-2.84-.46-4.47l-3.2-1.58v4.02l-3.11,2.48c-.93-1.16-.94-2.51-.8-3.12-.03.13-.08.31-.15.55-5.36,19.41-8.95,74.15,63.96,177.64-8.88,6.19-14.39,16.74-13.61,28.32,1.17,17.59,16.38,30.89,33.97,29.72s30.89-16.38,29.72-33.97Z"/><path class="cls-1" d="M175.9,362.95c-4.6,0-9.41-.19-14.38-.66-41.01-3.82-71.98-24.35-89.57-59.36l7.15-3.59c16.48,32.81,44.37,51.3,82.91,54.96,29.16,2.77,53.79-4.42,54.04-4.5l2.29,7.67c-.88.26-18.66,5.48-42.44,5.48Z"/><circle class="cls-2" cx="66.26" cy="301.13" r="24.52"/><path class="cls-1" d="M691.05,441.45c-18.62-31.64-47.69-48.23-86.39-49.32-29.27-.81-53.38,8-53.62,8.09l-2.79-7.5c1.03-.38,25.58-9.41,56.37-8.59,41.17,1.08,73.44,19.5,93.32,53.26l-6.89,4.06Z"/><circle class="cls-2" cx="703.74" cy="438.8" r="24.52"/><path class="cls-2" d="M582.28,235.23c229.49,84.86-22.69,62.93-48.5,245.67,0,0-8.04,85.75-8.04,85.75-1.81,19.33-23.77,29.55-39.72,18.49-117.39-88.12-143.42-92.91-284.91-55.59-18.94,4.24-35.44-13.48-29.86-32.07l24.79-82.48c45.45-125.52-123.61-224.89-38.69-243.97,69.57.06,158.97,3.41,206.27-57.84,151.7-191.96,52.64,40.73,218.66,122.05Z"/><ellipse class="cls-4" cx="309.91" cy="301.43" rx="67.75" ry="45.77" transform="translate(-6.26 596.29) rotate(-87.21)"/><ellipse class="cls-4" cx="448.68" cy="320.06" rx="67.75" ry="45.77" transform="translate(107.14 752.61) rotate(-87.21)"/><ellipse class="cls-1" cx="304.93" cy="312.59" rx="51.39" ry="36.2" transform="translate(-22.15 601.93) rotate(-87.21)"/><ellipse class="cls-1" cx="454.15" cy="308.47" rx="51.39" ry="36.2" transform="translate(123.92 747.05) rotate(-87.21)"/><path class="cls-3" d="M345.69,392.99l44.08,2.15s-16.92-39.02-44.08-2.15Z"/></svg>