<?xml version="1.0" encoding="UTF-8"?><svg id="Layer_1" xmlns="http://www.w3.org/2000/svg" viewBox="0 0 289.58 289.58"><defs><style>.cls-1{fill:#ff88d7;}.cls-2{fill:#1f1f1f;}</style></defs><path class="cls-1" d="M94.93,164.12c-7.27-7.62-14.4-15.7-18.37-25.45-5.29-13-4.03-28.96,4.88-39.8,8.91-10.84,25.75-15.01,37.87-7.94,4.35,2.53,7.89,6.25,10.96,10.23,7.4,9.61,12.37,21.32,12.85,33.44-.68-14.22,4.08-28.63,13.1-39.64,2.6-3.17,5.63-6.14,9.43-7.68,7.91-3.22,20.87-3.74,28.44.2,6.31,3.29,8.1,5.32,12.87,10.59,2.84,3.14,5.99,9.12,7.62,12.32,1.36,2.67,1.49,5.78,1.55,8.78.21,10.33-4.81,19.89-8.48,29.55-4.82,12.72-9.36,18.25-19.71,28.3-6.63,6.44-14.72,13.39-22.88,17.73-6.05,3.21-18.67,11.61-25.66,9.92-6.92-1.68-16.14-13.27-21.37-18.01-7.97-7.23-15.67-14.74-23.1-22.53Z"/><path class="cls-2" d="M141.39,208.38c-.97,0-1.91-.1-2.81-.32-6.09-1.48-12.54-8.2-18.23-14.13-1.74-1.81-3.38-3.53-4.67-4.7-8.01-7.26-15.84-14.9-23.28-22.7-6.98-7.32-14.79-16-19.08-26.55-6.08-14.93-3.95-31.94,5.42-43.35,10.24-12.46,29.23-16.38,42.34-8.74,4.22,2.46,8.02,5.99,11.97,11.12,3.75,4.87,6.78,10.11,9.03,15.51,2.32-7.93,6.21-15.41,11.43-21.79,2.27-2.77,5.86-6.69,10.82-8.71,8.49-3.45,22.54-4.26,31.38.34,6.77,3.53,8.92,5.9,13.63,11.1l.22.25c2.28,2.52,4.95,6.8,8.14,13.08,1.66,3.26,1.86,6.73,1.93,10.3.18,8.97-3.17,17.18-6.41,25.11-.77,1.89-1.57,3.84-2.29,5.75-4.91,12.94-9.65,19-20.55,29.57-8.79,8.53-16.53,14.52-23.68,18.31-1.02.54-2.22,1.23-3.56,1.99-6.44,3.68-14.95,8.55-21.76,8.55ZM105.85,90.93c-8,0-16.33,3.62-21.7,10.15-7.64,9.3-9.39,23.87-4.34,36.26,3.83,9.41,11.12,17.5,17.66,24.36h0c7.32,7.68,15.03,15.2,22.92,22.35,1.47,1.33,3.19,3.13,5.02,5.03,4.52,4.72,10.72,11.17,14.83,12.17,4.42,1.08,14.2-4.51,19.44-7.51,1.37-.78,2.66-1.52,3.75-2.1,6.55-3.48,13.77-9.09,22.08-17.15,10.41-10.1,14.37-15.14,18.88-27.03.75-1.99,1.57-3.98,2.36-5.91,3.11-7.61,6.04-14.8,5.89-22.33-.06-2.82-.18-5.32-1.17-7.26-2.87-5.65-5.26-9.53-7.09-11.56l-.22-.25c-4.5-4.97-6.02-6.65-11.67-9.59-6.73-3.51-18.62-2.86-25.51-.06-2.65,1.08-5.2,3.19-8.04,6.66-8.37,10.22-12.85,23.62-12.33,36.82,0,.16.01.31.02.47l-6.99.3c0-.15-.01-.3-.02-.46-.51-10.53-4.8-21.53-12.1-31.02-3.38-4.39-6.54-7.35-9.95-9.34-3.5-2.04-7.56-3.02-11.71-3.02Z"/></svg>