<?xml version="1.0" encoding="UTF-8"?><svg id="Layer_1" xmlns="http://www.w3.org/2000/svg" viewBox="0 0 289.58 289.58"><defs><style>.cls-1{fill:#1f1f1f;}.cls-2{fill:#8af4ff;}</style></defs><path class="cls-2" d="M135.42,179.63s-48.73-30.65-24.52-53.94c14.44-13.89,28.42,5.06,33.51,7.9,0,0,9.58-21.58,25.39-17.53s19.84,27.06,11.12,38.23-28.06,26.7-33.51,32.15c0,0-5.45-3.81-11.99-6.81Z"/><path class="cls-1" d="M147.81,190.99l-2.41-1.68c-.05-.04-5.29-3.68-11.44-6.5l-.41-.22c-1.25-.79-30.67-19.51-32.78-40.07-.74-7.21,1.85-13.73,7.7-19.36,13.89-13.37,27.62-1.25,34.22,4.57.19.17.39.34.58.51,3.95-6.68,13.4-19.17,27.39-15.58,7.61,1.95,13.63,7.91,16.51,16.35,3.26,9.55,1.85,20.58-3.5,27.43-6.29,8.06-17.63,18.05-25.92,25.34-3.39,2.98-6.32,5.56-7.88,7.12l-2.07,2.07ZM137.1,176.55c4.06,1.88,7.66,4.02,9.91,5.44,1.63-1.49,3.71-3.32,6.12-5.45,8.08-7.11,19.13-16.85,25.02-24.4,3.96-5.07,4.92-13.45,2.39-20.86-1.23-3.62-4.38-9.97-11.62-11.83-12.8-3.28-21.23,15.37-21.32,15.56l-1.56,3.51-3.35-1.87c-1.34-.75-2.79-2.03-4.64-3.66-8.17-7.2-16.2-12.99-24.74-4.78-4.28,4.11-6.1,8.56-5.59,13.59,1.68,16.44,26.97,33.2,29.37,34.75Z"/></svg>