<?xml version="1.0" encoding="UTF-8"?><svg id="Layer_1" xmlns="http://www.w3.org/2000/svg" viewBox="0 0 289.58 289.58"><defs><style>.cls-1{fill:#20f284;}.cls-2{fill:#0cad55;}.cls-3{fill:#fff;}.cls-4{fill:#1f1f1f;}</style></defs><path class="cls-2" d="M87.96,121.36l-29.41,47.53s33.25-10.95,66.89,15.83c33.64,26.77,86.36,19.03,86.36,19.03l21.14-56.22s-65.39.47-77.7-12.27c-26.42-27.35-67.29-13.9-67.29-13.9Z"/><path class="cls-4" d="M193.83,208.34c-18.88,0-48.44-3.27-70.57-20.88-31.66-25.2-62.34-15.66-63.63-15.24-1.4.45-2.93-.01-3.84-1.17-.91-1.16-1-2.75-.23-4l29.41-47.53c.43-.7,1.1-1.23,1.88-1.48,1.76-.58,43.27-13.81,70.9,14.79,2.53,2.62,11.26,7.38,41.24,9.86,17.52,1.45,33.76,1.35,33.92,1.35h.03c1.14,0,2.22.56,2.87,1.5.66.95.81,2.16.41,3.24l-21.14,56.22c-.45,1.19-1.51,2.05-2.77,2.23-.79.12-7.99,1.12-18.48,1.12ZM75.86,163.12c13.39,0,32.47,3.5,51.77,18.86,28.4,22.6,71.82,19.57,81.66,18.55l18.62-49.51c-16.51-.15-63.85-1.62-75.16-13.33-22.19-22.97-55.81-15.2-62.5-13.35l-24.42,39.45c2.78-.38,6.17-.67,10.04-.67Z"/><path class="cls-1" d="M93.89,94.74l-37.26,41.66s34.65-4.97,63.1,27.27c28.45,32.24,81.71,33.83,81.71,33.83l30.64-51.66s-64.46-10.96-74.36-25.66c-21.24-31.54-63.83-25.44-63.83-25.44Z"/><path class="cls-4" d="M201.43,201s-.07,0-.1,0c-2.24-.07-55.11-2.01-84.23-35.01-26.89-30.47-59.65-26.17-59.98-26.12-1.45.21-2.89-.52-3.58-1.81s-.5-2.89.48-3.99l37.26-41.66c.55-.61,1.3-1.01,2.11-1.13,1.83-.26,45.02-6.04,67.23,26.95,2.04,3.02,9.79,9.24,38.88,16.91,17,4.49,33,7.22,33.16,7.25,1.14.19,2.1.93,2.59,1.98.48,1.05.42,2.26-.17,3.26l-30.64,51.67c-.63,1.07-1.78,1.71-3.01,1.71ZM64.67,132.65c12.54.49,36.65,4.87,57.68,28.7,24.06,27.26,67.31,31.83,77.16,32.53l26.98-45.5c-16.23-3.03-62.59-12.75-71.68-26.26-17.84-26.49-52.3-24.71-59.21-24.06l-30.93,34.58Z"/><polygon class="cls-3" points="150.85 111.89 114.42 158.14 135.96 177.57 169.88 128.79 150.85 111.89"/><path class="cls-4" d="M135.96,181.07c-.86,0-1.7-.32-2.34-.9l-21.54-19.43c-1.37-1.23-1.54-3.32-.41-4.76l36.43-46.25c.6-.76,1.48-1.23,2.44-1.32.95-.08,1.91.23,2.63.87l19.04,16.9c1.33,1.18,1.56,3.16.55,4.62l-33.92,48.79c-.57.83-1.48,1.36-2.47,1.48-.13.02-.27.02-.4.02ZM119.19,157.73l16.16,14.58,29.88-42.97-13.94-12.37-32.11,40.77Z"/></svg>