<?xml version="1.0" encoding="UTF-8"?><svg id="Layer_1" xmlns="http://www.w3.org/2000/svg" viewBox="0 0 289.58 289.58"><defs><style>.cls-1{fill:#1f1f1f;}.cls-2{fill:#ffee1d;}</style></defs><circle class="cls-2" cx="144.53" cy="151.59" r="62.96"/><path class="cls-1" d="M144.53,218.05c-36.65,0-66.46-29.81-66.46-66.46s29.81-66.46,66.46-66.46,66.46,29.81,66.46,66.46-29.81,66.46-66.46,66.46ZM144.53,92.13c-32.79,0-59.46,26.67-59.46,59.46s26.67,59.46,59.46,59.46,59.46-26.67,59.46-59.46-26.67-59.46-59.46-59.46Z"/><path class="cls-1" d="M146.16,189.6c-6.02,0-11.94-1.16-17.39-3.44-1.65-.69-3.54-1.62-5.02-3.26-1.99-2.21-2.63-5.26-1.63-7.77.71-1.8,2.75-2.67,4.54-1.96,1.77.7,2.65,2.69,1.99,4.47.01.11.11.36.31.58.54.61,1.57,1.09,2.5,1.47,6.09,2.54,12.9,3.44,19.69,2.58,1.96-.25,3.35-.58,4.51-1.08,1.83-.79,3.57-2.25,5.25-3.66,3.21-2.69,6.37-5.59,6.69-8.85.19-1.92,1.91-3.34,3.83-3.14,1.92.19,3.33,1.9,3.14,3.83-.63,6.38-5.97,10.86-9.17,13.53-1.97,1.65-4.2,3.52-6.96,4.71-2.29.99-4.63,1.38-6.41,1.6-1.96.25-3.92.37-5.87.37Z"/><circle class="cls-1" cx="120.26" cy="144.73" r="8.55"/><circle class="cls-1" cx="166.14" cy="137.16" r="8.72"/></svg>