<?xml version="1.0" encoding="UTF-8"?><svg id="Layer_1" xmlns="http://www.w3.org/2000/svg" viewBox="0 0 289.58 289.58"><defs><style>.cls-1{fill:#1f1f1f;}.cls-2{fill:#ffbe1d;}</style></defs><path class="cls-2" d="M149.48,88.09l11.46,27.84c1.92,3.99,2.53,6.31,10.11,7.34s33.74,2.55,33.74,2.55c7.04,3.27-1.87,10.81-1.87,10.81l-19.78,16.43c-3.2,3.06-5.86,11.19-5.07,15.54l5.17,28.59c.82,4.54-3.97,8.02-8.04,5.84l-25.6-13.76c-3.9-2.1-11-2.98-20.96,2.38s-10.56,6.14-17.13,11.38-8.86-1.3-8.04-5.84l5.17-28.59c.79-4.36-1.47-9.59-3.86-11.88s-20.99-20.09-20.99-20.09c-3.34-3.19-1.51-8.82,3.07-9.45l29.79-.64c4.39-.6,7.19-6.63,9.11-10.62l12.62-26.17c2.01-4.16,7.96-8.34,11.1-1.66Z"/><path class="cls-1" d="M107.18,208.48c-1.48,0-2.62-.47-3.38-.92-3.57-2.13-4.46-7.19-3.78-10.98l5.17-28.59c.58-3.18-1.26-7.23-2.84-8.73l-20.99-20.09c-2.52-2.41-3.42-5.98-2.34-9.3s3.9-5.68,7.36-6.15l.4-.03,29.54-.63c2.37-.51,4.81-5.58,6.13-8.33l12.77-26.49c1.66-3.45,5.44-7.15,9.83-7.15h.04c1.86,0,5.3.74,7.55,5.52l.07.16,11.42,27.75.33.68c1.46,3.08,1.85,3.91,7.05,4.61,7.36,1,33.21,2.51,33.47,2.52l.67.04.61.28c3.43,1.59,4.43,4.02,4.67,5.77.69,5.14-4.67,9.97-5.76,10.89l-19.7,16.36c-2.33,2.33-4.54,9.16-3.97,12.32l5.17,28.59c.62,3.43-.75,6.84-3.57,8.9-2.83,2.05-6.49,2.3-9.57.65l-25.6-13.76c-1.99-1.07-7.69-2.98-17.64,2.38-8.64,4.64-9.92,5.67-14.71,9.52l-1.89,1.52c-2.58,2.06-4.78,2.7-6.51,2.7ZM87.18,130.68c-1.01.21-1.38,1-1.49,1.35-.12.36-.3,1.29.52,2.08l20.99,20.09c3.19,3.05,5.88,9.51,4.89,15.04l-5.17,28.59c-.29,1.6.08,3.13.42,3.63.27-.06.92-.3,1.99-1.15l1.88-1.5c5.05-4.06,6.58-5.28,15.78-10.23,12.95-6.96,21.29-3.98,24.27-2.38l25.6,13.76c1,.54,1.83.08,2.14-.14.31-.22,1-.86.8-1.99l-5.17-28.59c-1-5.53,2.02-14.79,6.09-18.7l.18-.16,19.78-16.43c1.79-1.53,3.29-3.72,3.32-4.52-.04-.04-.1-.09-.19-.15-4.48-.27-26.25-1.58-33.23-2.53-8.36-1.14-10.28-3.99-12.44-8.55l-.44-.93-11.42-27.75c-.42-.86-.89-1.42-1.21-1.42h0c-.9,0-2.67,1.42-3.52,3.19l-12.77,26.48c-2.19,4.55-5.5,11.42-11.64,12.26l-.4.03-29.55.63Z"/></svg>