<svg width="35" height="22" viewBox="0 0 35 22" fill="none" xmlns="http://www.w3.org/2000/svg">
<path d="M17.5 0.020752C18.8537 0.020752 20.152 0.558511 21.1092 1.51573C22.0664 2.47294 22.6042 3.77121 22.6042 5.12492C22.6042 6.47863 22.0664 7.77689 21.1092 8.73411C20.152 9.69133 18.8537 10.2291 17.5 10.2291C16.1463 10.2291 14.848 9.69133 13.8908 8.73411C12.9336 7.77689 12.3958 6.47863 12.3958 5.12492C12.3958 3.77121 12.9336 2.47294 13.8908 1.51573C14.848 0.558511 16.1463 0.020752 17.5 0.020752ZM7.29167 3.66659C8.10833 3.66659 8.86667 3.88534 9.52292 4.27909C9.30417 6.3645 9.91667 8.43534 11.1708 10.0541C10.4417 11.4541 8.98333 12.4166 7.29167 12.4166C6.13134 12.4166 5.01855 11.9557 4.19807 11.1352C3.3776 10.3147 2.91667 9.20191 2.91667 8.04159C2.91667 6.88126 3.3776 5.76846 4.19807 4.94799C5.01855 4.12752 6.13134 3.66659 7.29167 3.66659ZM27.7083 3.66659C28.8687 3.66659 29.9815 4.12752 30.8019 4.94799C31.6224 5.76846 32.0833 6.88126 32.0833 8.04159C32.0833 9.20191 31.6224 10.3147 30.8019 11.1352C29.9815 11.9557 28.8687 12.4166 27.7083 12.4166C26.0167 12.4166 24.5583 11.4541 23.8292 10.0541C25.1001 8.41234 25.6902 6.34432 25.4771 4.27909C26.1333 3.88534 26.8917 3.66659 27.7083 3.66659ZM8.02083 18.6145C8.02083 15.5958 12.2646 13.1458 17.5 13.1458C22.7354 13.1458 26.9792 15.5958 26.9792 18.6145V21.1666H8.02083V18.6145ZM0 21.1666V18.9791C0 16.952 2.75625 15.2458 6.48958 14.7499C5.62917 15.7416 5.10417 17.1124 5.10417 18.6145V21.1666H0ZM35 21.1666H29.8958V18.6145C29.8958 17.1124 29.3708 15.7416 28.5104 14.7499C32.2438 15.2458 35 16.952 35 18.9791V21.1666Z" fill="#ADADAD"/>
</svg>
