<?xml version="1.0" encoding="UTF-8"?><svg id="Layer_1" xmlns="http://www.w3.org/2000/svg" viewBox="0 0 1076.25 427.85"><defs><style>.cls-1{fill:#ffce00;}</style></defs><path class="cls-1" d="M1029.17,45.88s27.75-2.94,27.75-2.94c28.08,2.58-22.15,41.61-2.35,79.99,0,0,11.37,25.48,11.37,25.48,2.56,5.74-2.01,12.12-8.27,11.54-47.15-6.19-55.26-3.41-89.26,29.64-4.67,4.21-12.15,1.83-13.53-4.3l-6.13-27.22c-7.14-42.66-70.67-43.81-49.73-62.7,19.64-11.05,45.41-24.33,49.01-49.14,0,0,5.78-27.3,5.78-27.3,11.16-25.91,32.61,33.87,75.35,26.96Z"/><rect x="1.63" y="268.37" width="87.84" height="24" rx="8.59" ry="8.59" transform="translate(-184.91 114.33) rotate(-45)"/><rect x="676.25" y="69.34" width="87.84" height="24" rx="8.59" ry="8.59" transform="translate(153.41 533.06) rotate(-45)"/><rect x="951.98" y="348.41" width="87.84" height="24" rx="8.59" ry="8.59" transform="translate(36.84 809.77) rotate(-45)"/><path d="M181.53,195.85h-94.4c-3.83,0-5.61-2.06-5.61-5.6v-96.17c0-3.83,1.18-5.31,5.01-5.31h13.57c3.83,0,5.01,1.48,5.01,5.31v22.42h58.7v-22.42c0-3.83,1.18-5.31,5.01-5.31h13.27c3.83,0,5.01,1.48,5.01,5.31v96.17c0,3.54-1.77,5.6-5.61,5.6ZM105.13,173.43h58.7v-34.51h-58.7v34.51ZM235.22,236.27h-81.71c-2.95,0-4.42-.89-4.42-3.25v-13.86c0-2.65,1.47-4.13,4.13-4.13h101.48c2.65,0,4.13,1.48,4.13,4.13v55.75c0,2.65-1.18,5.01-4.42,5.01h-82.3v25.66h85.25c2.65,0,4.13,1.48,4.13,4.13v13.86c0,2.36-1.47,3.25-4.42,3.25h-104.13c-2.95,0-4.42-.89-4.42-3.25v-59.29c0-3.83,1.18-5.61,5.01-5.61h81.71v-22.42ZM254.99,204.11h-14.45c-3.24,0-4.42-2.36-4.42-5.61v-18.29h-29.2c-2.95,0-4.42-1.18-4.42-3.84v-13.86c0-2.65,1.47-4.13,4.13-4.13h29.5v-29.79h-29.2c-2.95,0-4.42-1.18-4.42-3.84v-13.86c0-2.65,1.47-4.13,4.13-4.13h29.5v-20.06c0-3.84,1.18-5.61,5.01-5.61h13.27c3.83,0,5.01,1.77,5.01,5.61v111.8c0,2.95-1.18,5.61-4.42,5.61Z"/><path d="M405.72,261.19h-94.4c-3.83,0-5.61-2.06-5.61-5.6v-96.17c0-3.83,1.18-5.31,5.01-5.31h13.57c3.83,0,5.01,1.48,5.01,5.31v22.42h58.7v-22.42c0-3.83,1.18-5.31,5.01-5.31h13.27c3.83,0,5.01,1.48,5.01,5.31v96.17c0,3.54-1.77,5.6-5.61,5.6ZM329.32,238.77h58.7v-34.51h-58.7v34.51ZM459.41,301.61h-81.71c-2.95,0-4.42-.89-4.42-3.25v-13.86c0-2.65,1.47-4.13,4.13-4.13h101.48c2.65,0,4.13,1.48,4.13,4.13v55.75c0,2.65-1.18,5.01-4.42,5.01h-82.3v25.66h85.25c2.65,0,4.13,1.48,4.13,4.13v13.86c0,2.36-1.47,3.25-4.42,3.25h-104.13c-2.95,0-4.42-.89-4.42-3.25v-59.29c0-3.83,1.18-5.61,5.01-5.61h81.71v-22.42ZM479.18,269.45h-14.45c-3.24,0-4.42-2.36-4.42-5.61v-18.29h-29.2c-2.95,0-4.42-1.18-4.42-3.84v-13.86c0-2.65,1.47-4.13,4.13-4.13h29.5v-29.79h-29.2c-2.95,0-4.42-1.18-4.42-3.84v-13.86c0-2.65,1.47-4.13,4.13-4.13h29.5v-20.06c0-3.84,1.18-5.61,5.01-5.61h13.27c3.83,0,5.01,1.77,5.01,5.61v111.8c0,2.95-1.18,5.61-4.42,5.61Z"/><path d="M613.69,144.82h-83.19c-2.95,0-4.42-1.18-4.42-3.83v-15.04c0-2.65,1.48-4.13,4.13-4.13h102.66c2.65,0,4.13,1.48,4.13,4.13v129.5c0,2.95-1.18,5.61-4.42,5.61h-14.45c-3.25,0-4.42-2.36-4.42-5.61v-110.62ZM707.5,289.66c0,2.95-1.18,5.61-4.42,5.61h-14.45c-3.25,0-4.42-1.77-4.42-4.72V107.65c0-3.83,1.18-5.61,5.01-5.61h13.27c3.83,0,5.01,1.77,5.01,5.61v182.01Z"/><path d="M871.51,168.56h-91.45c-2.95,0-4.42-.89-4.42-3.24v-14.45c0-2.66,1.47-4.13,4.13-4.13h110.92c2.66,0,4.13,1.47,4.13,4.13v55.46c0,2.65-1.18,5.01-4.42,5.01h-92.92v21.24h95.28c2.65,0,4.13,1.48,4.13,4.13v14.45c0,2.36-1.47,3.25-4.42,3.25h-45.43v19.17h69.91c2.65,0,4.13,1.47,4.13,4.13v14.75c0,2.65-1.48,3.83-4.42,3.83h-162.54c-2.95,0-4.42-1.77-4.42-4.42v-13.57c0-3.25,1.18-4.72,4.72-4.72h69.32v-19.17h-45.13c-2.95,0-4.42-.89-4.42-3.25v-56.64c0-3.83,1.18-5.6,5.01-5.6h92.33v-20.35ZM871.51,335.53h-91.45c-2.95,0-4.42-1.18-4.42-3.84v-14.16c0-2.65,1.47-4.13,4.13-4.13h110.92c2.66,0,4.13,1.48,4.13,4.13v72.27c0,2.95-1.18,5.61-4.42,5.61h-14.45c-3.24,0-4.42-2.36-4.42-5.61v-54.28Z"/></svg>