<svg width="29" height="31" viewBox="0 0 29 31" fill="none" xmlns="http://www.w3.org/2000/svg">
<path d="M14.4999 20.6042C13.1462 20.6042 11.8479 20.0665 10.8907 19.1093C9.93348 18.1521 9.39572 16.8538 9.39572 15.5001C9.39572 14.1464 9.93348 12.8481 10.8907 11.8909C11.8479 10.9337 13.1462 10.3959 14.4999 10.3959C15.8536 10.3959 17.1519 10.9337 18.1091 11.8909C19.0663 12.8481 19.6041 14.1464 19.6041 15.5001C19.6041 16.8538 19.0663 18.1521 18.1091 19.1093C17.1519 20.0665 15.8536 20.6042 14.4999 20.6042ZM25.3353 16.9147C25.3936 16.448 25.4374 15.9813 25.4374 15.5001C25.4374 15.0188 25.3936 14.5376 25.3353 14.0417L28.4124 11.6647C28.6895 11.4459 28.7624 11.0522 28.5874 10.7313L25.6707 5.6855C25.4957 5.36467 25.102 5.23342 24.7811 5.36467L21.1499 6.823C20.3916 6.25425 19.6041 5.75842 18.6853 5.39383L18.1457 1.52925C18.1161 1.35748 18.0266 1.20175 17.8932 1.08964C17.7597 0.977528 17.5909 0.916282 17.4166 0.916751H11.5832C11.2186 0.916751 10.9124 1.17925 10.8541 1.52925L10.3145 5.39383C9.39572 5.75842 8.60822 6.25425 7.84989 6.823L4.21864 5.36467C3.8978 5.23342 3.50405 5.36467 3.32905 5.6855L0.412388 10.7313C0.222805 11.0522 0.310305 11.4459 0.587388 11.6647L3.66447 14.0417C3.60614 14.5376 3.56239 15.0188 3.56239 15.5001C3.56239 15.9813 3.60614 16.448 3.66447 16.9147L0.587388 19.3355C0.310305 19.5543 0.222805 19.948 0.412388 20.2688L3.32905 25.3147C3.50405 25.6355 3.8978 25.7522 4.21864 25.6355L7.84989 24.1626C8.60822 24.7459 9.39572 25.2418 10.3145 25.6063L10.8541 29.4709C10.9124 29.8209 11.2186 30.0834 11.5832 30.0834H17.4166C17.7811 30.0834 18.0874 29.8209 18.1457 29.4709L18.6853 25.6063C19.6041 25.2272 20.3916 24.7459 21.1499 24.1626L24.7811 25.6355C25.102 25.7522 25.4957 25.6355 25.6707 25.3147L28.5874 20.2688C28.7624 19.948 28.6895 19.5543 28.4124 19.3355L25.3353 16.9147Z" fill="#ADADAD"/>
</svg>
