<?xml version="1.0" encoding="UTF-8"?><svg id="Layer_1" xmlns="http://www.w3.org/2000/svg" viewBox="0 0 289.58 289.58"><defs><style>.cls-1{fill:#ffc229;}.cls-2{fill:#fff;}</style></defs><circle class="cls-1" cx="144.79" cy="144.79" r="94.39"/><path class="cls-2" d="M144.79,60.59c46.5,0,84.2,37.7,84.2,84.2s-37.7,84.2-84.2,84.2-84.2-37.7-84.2-84.2,37.7-84.2,84.2-84.2M144.79,58.37c-11.67,0-22.98,2.29-33.64,6.79-10.29,4.35-19.53,10.58-27.47,18.52-7.94,7.94-14.17,17.18-18.52,27.47-4.51,10.66-6.79,21.97-6.79,33.64s2.29,22.98,6.79,33.64c4.35,10.29,10.58,19.53,18.52,27.47,7.94,7.94,17.18,14.17,27.47,18.52,10.66,4.51,21.97,6.79,33.64,6.79s22.98-2.29,33.64-6.79c10.29-4.35,19.53-10.58,27.47-18.52,7.94-7.94,14.17-17.18,18.52-27.47,4.51-10.66,6.79-21.97,6.79-33.64s-2.29-22.98-6.79-33.64c-4.35-10.29-10.58-19.53-18.52-27.47-7.94-7.94-17.18-14.17-27.47-18.52-10.66-4.51-21.97-6.79-33.64-6.79h0Z"/><path class="cls-2" d="M169.86,203.51l-.54-1.21c-.94-1.83,1.45-3.68.11-3.8l-1.32.14c-2.03.33-3.05-2.51-3.58-1.28,0,0-.27,1.3-.27,1.3-.17,1.18-1.4,1.81-2.33,2.34-1,.9,2.03.95,2.37,2.98l.29,1.29c.07.29.42.4.64.2,1.62-1.57,2-1.7,4.24-1.41.3.03.52-.28.39-.55Z"/><path class="cls-2" d="M122,208.3l-2.15,2.15c-.22.22-.22.59,0,.81h0c.22.22.59.22.81,0l2.15-2.15c.22-.22.22-.59,0-.81s-.59-.22-.81,0Z"/><path class="cls-2" d="M154.89,199.65c.22-.22.22-.59,0-.81-.22-.22-.59-.22-.81,0l-2.15,2.15c-.1.1-.15.23-.16.36-.05.04-.07.11-.07.22v8.7c0,.14.06.22.21.22h.69c.15,0,.21-.13.21-.27v-8.5l2.08-2.08Z"/><path class="cls-2" d="M167.19,212.11l-2.15,2.15c-.22.22-.22.59,0,.81s.59.22.81,0l2.15-2.15c.22-.22.22-.59,0-.81-.22-.22-.59-.22-.81,0Z"/><path class="cls-2" d="M131.4,210.98h-4.05v-1.22h3.91c.15,0,.21-.11.21-.24v-2.65c0-.13-.07-.2-.2-.2h-4.83c-.13,0-.2.07-.2.2v.66c0,.11.07.15.21.15h3.89v1.07h-3.89c-.18,0-.24.08-.24.27v2.82c0,.11.07.15.21.15h4.95c.14,0,.21-.04.21-.15v-.66c0-.13-.07-.2-.2-.2Z"/><path class="cls-2" d="M128.06,205.49v-4.57c0-.18-.06-.25-.24-.25h-.63c-.18,0-.24.07-.24.25v1.07h-2.79v-1.07c0-.18-.06-.25-.24-.25h-.65c-.18,0-.24.07-.24.25v4.57c0,.17.08.27.27.27h4.49c.18,0,.27-.1.27-.27ZM126.95,204.69h-2.79v-1.64h2.79v1.64Z"/><path class="cls-2" d="M129,205.02h1.39v.87c0,.15.06.27.21.27h.69c.15,0,.21-.13.21-.27v-5.32c0-.18-.06-.27-.24-.27h-.63c-.18,0-.24.08-.24.27v.95h-1.4c-.13,0-.2.07-.2.2v.66c0,.13.07.18.21.18h1.39v1.42h-1.4c-.13,0-.2.07-.2.2v.66c0,.13.07.18.21.18Z"/><path class="cls-2" d="M139.66,208.12h1.39v.87c0,.15.06.27.21.27h.69c.15,0,.21-.13.21-.27v-5.32c0-.18-.06-.27-.24-.27h-.63c-.18,0-.24.08-.24.27v.95h-1.4c-.13,0-.2.07-.2.2v.66c0,.13.07.18.21.18h1.39v1.42h-1.4c-.13,0-.2.07-.2.2v.66c0,.13.07.18.21.18Z"/><path class="cls-2" d="M142.06,214.09h-4.05v-1.22h3.91c.15,0,.21-.11.21-.24v-2.65c0-.13-.07-.2-.2-.2h-4.83c-.13,0-.2.07-.2.2v.66c0,.11.07.15.21.15h3.89v1.07h-3.89c-.18,0-.24.08-.24.27v2.82c0,.11.07.15.21.15h4.95c.14,0,.21-.04.21-.15v-.66c0-.13-.07-.2-.2-.2Z"/><path class="cls-2" d="M138.72,208.6v-4.57c0-.18-.06-.25-.24-.25h-.63c-.18,0-.24.07-.24.25v1.07h-2.79v-1.07c0-.18-.06-.25-.24-.25h-.65c-.18,0-.24.07-.24.25v4.57c0,.17.08.27.27.27h4.49c.18,0,.27-.1.27-.27ZM137.62,207.8h-2.79v-1.64h2.79v1.64Z"/><path class="cls-2" d="M149.26,202.24h-4.88c-.13,0-.2.07-.2.2v.72c0,.13.07.18.21.18h3.96v5.26c0,.15.06.27.21.27h.69c.15,0,.21-.13.21-.27v-6.16c0-.13-.07-.2-.2-.2Z"/><path class="cls-2" d="M161.52,211.35h-5.28c-.13,0-.2.07-.2.2v.67c0,.13.07.18.21.18h4.35v2.58c0,.15.06.27.21.27h.69c.15,0,.21-.13.21-.27v-3.44c0-.13-.07-.2-.2-.2Z"/><path class="cls-2" d="M162.77,209.46h-3.32v-.91h2.16c.14,0,.21-.04.21-.15v-.69c0-.13-.07-.2-.2-.2h-4.53v-1.01h4.42c.15,0,.21-.11.21-.24v-2.64c0-.13-.07-.2-.2-.2h-5.28c-.13,0-.2.07-.2.2v.69c0,.11.07.15.21.15h4.35v.97h-4.39c-.18,0-.24.08-.24.27v2.69c0,.11.07.15.21.15h2.15v.91h-3.3c-.17,0-.22.07-.22.22v.65c0,.13.07.21.21.21h7.73c.14,0,.21-.06.21-.18v-.7c0-.13-.07-.2-.2-.2Z"/><path class="cls-2" d="M180.45,135.97l-16.38-5.93c-2.15-.78-4.04-2.15-5.44-3.96l-10.7-13.75c-1.59-2.04-4.68-2.04-6.27,0l-10.7,13.75c-1.41,1.81-3.29,3.18-5.44,3.96l-16.38,5.93c-2.43.88-3.39,3.82-1.94,5.96l9.77,14.43c1.28,1.89,2,4.11,2.08,6.4l.57,17.41c.09,2.59,2.58,4.4,5.07,3.68l16.74-4.83c2.2-.63,4.53-.63,6.73,0l16.74,4.83c2.49.72,4.99-1.1,5.07-3.68l.57-17.41c.08-2.29.8-4.51,2.08-6.4l9.77-14.43c1.45-2.14.5-5.08-1.94-5.96Z"/><path class="cls-2" d="M88.8,129.53l-4.13-1.49c-.54-.2-1.02-.54-1.37-1l-2.69-3.46c-.4-.51-1.18-.51-1.58,0l-2.69,3.46c-.35.45-.83.8-1.37,1l-4.13,1.49c-.61.22-.85.96-.49,1.5l2.46,3.63c.32.48.5,1.04.52,1.61l.14,4.39c.02.65.65,1.11,1.28.93l4.22-1.22c.55-.16,1.14-.16,1.7,0l4.22,1.22c.63.18,1.26-.28,1.28-.93l.14-4.39c.02-.58.2-1.13.52-1.61l2.46-3.63c.37-.54.13-1.28-.49-1.5Z"/><path class="cls-2" d="M85.36,157.08l-2.69-.97c-.35-.13-.66-.35-.89-.65l-1.75-2.25c-.26-.34-.77-.34-1.03,0l-1.75,2.25c-.23.3-.54.52-.89.65l-2.69.97c-.4.14-.56.63-.32.98l1.6,2.37c.21.31.33.67.34,1.05l.09,2.86c.01.42.42.72.83.6l2.74-.79c.36-.1.74-.1,1.1,0l2.74.79c.41.12.82-.18.83-.6l.09-2.86c.01-.38.13-.74.34-1.05l1.6-2.37c.24-.35.08-.83-.32-.98Z"/><path class="cls-2" d="M92,179.57l-2.15-.78c-.28-.1-.53-.28-.71-.52l-1.4-1.8c-.21-.27-.61-.27-.82,0l-1.4,1.8c-.18.24-.43.42-.71.52l-2.15.78c-.32.12-.44.5-.25.78l1.28,1.89c.17.25.26.54.27.84l.08,2.28c.01.34.34.58.66.48l2.19-.63c.29-.08.59-.08.88,0l2.19.63c.33.09.65-.14.66-.48l.08-2.28c0-.3.1-.59.27-.84l1.28-1.89c.19-.28.07-.67-.25-.78Z"/><rect class="cls-2" x="203.28" y="129.57" width="14.99" height="4.1" rx="1.47" ry="1.47" transform="translate(-37.7 128.56) rotate(-31.28)"/><rect class="cls-2" x="201.41" y="148.29" width="20.38" height="4.1" rx="1.47" ry="1.47" transform="translate(-47.3 131.71) rotate(-31.28)"/><rect class="cls-2" x="193.84" y="170.02" width="26.63" height="4.1" rx="1.47" ry="1.47" transform="translate(-59.23 132.57) rotate(-31.28)"/><path class="cls-2" d="M98.28,86.76l3.88-2.56c.25-.16.47-.12.64.13l.9,1.37c.16.25.1.45-.18.63l-3.85,2.54,1.8,2.73,6.85.39c.45.02.65.28.61.62l-.24,1.53c-.05.34-.27.49-.57.45l-6.46-.4-2.16,6.13c-.08.29-.3.43-.64.34l-1.52-.41c-.34-.09-.4-.37-.29-.79l2.3-6.38-1.84-2.79-3.83,2.52c-.27.18-.52.11-.68-.14l-.83-1.26c-.2-.3-.18-.51.15-.73l3.8-2.51-1.23-1.86c-.23-.36-.23-.59.12-.83l1.23-.81c.36-.23.57-.14.81.21l1.23,1.86ZM107,99.75l4.87-3.21c.25-.16.47-.12.64.13l.9,1.37c.16.25.1.45-.18.63l-11.78,7.77c-.27.18-.52.11-.68-.14l-.83-1.26c-.2-.3-.18-.51.15-.73l4.76-3.14-2.24-3.39c-.22-.33-.22-.52.13-.75l1.28-.85c.36-.23.51-.18.74.18l2.24,3.39ZM118.37,95.51c.18.27.23.59-.07.79l-1.34.88c-.3.2-.52.11-.7-.17l-11.18-16.95c-.23-.36-.23-.59.12-.83l1.23-.81c.36-.23.57-.14.81.21l11.12,16.87Z"/><path class="cls-2" d="M130.56,74.11l-10.59,2.44c-.32.07-.51-.02-.57-.3l-.37-1.63c-.07-.29.06-.48.34-.55l12.7-2.93c.29-.07.48.06.55.34l2.78,12.06c.07.32.01.64-.34.72l-1.56.36c-.35.08-.54-.15-.62-.5l-2.31-10.02ZM129.36,89.91l9.19-2.12c.29-.07.48.06.55.34l.37,1.6c.07.29-.06.45-.38.53l-17.58,4.05c-.32.07-.52-.08-.59-.37l-.34-1.47c-.08-.35.01-.54.39-.63l5.87-1.35-1.46-6.32c-.09-.38-.03-.56.39-.66l1.5-.35c.41-.1.54,0,.64.42l1.46,6.32Z"/><path class="cls-2" d="M149.58,71.48c3.08.42,4.49,1.94,4.74,3.99l3.21.44.57-4.19c.06-.42.21-.6.64-.54l1.46.2c.42.06.52.27.47.69l-2.74,20.02c-.04.32-.21.6-.57.55l-1.59-.22c-.36-.05-.45-.33-.4-.68l.88-6.42-3.05-.42c-.64,2.29-2.52,3.65-5.89,3.19-3.83-.52-5.14-2.75-4.75-5.61l.93-6.75c.4-2.92,2.21-4.79,6.1-4.25ZM146.08,76.02l-.93,6.81c-.24,1.72.64,2.6,2.48,2.85,1.85.25,2.92-.36,3.16-2.08l.93-6.81c.21-1.52-.63-2.66-2.48-2.92-1.85-.25-2.93.62-3.17,2.14ZM153.6,82.44l2.99.41.61-4.48-2.98-.41-.61,4.48ZM162.71,93.37l-1.59-.22c-.36-.05-.45-.33-.4-.68l2.74-20.02c.06-.42.21-.6.64-.54l1.46.2c.42.06.52.27.47.69l-2.74,20.02c-.04.32-.21.6-.57.55Z"/><path class="cls-2" d="M182.64,80.06l2.7,1.48c3.18,1.75,3.85,5.29,1.93,8.8-1.25,2.27-3.12,3.63-5.2,3.75l-2.43,4.42-.02.03,3.79,2.08c.26.14.32.36.18.62l-.79,1.43c-.14.26-.35.29-.64.14l-15.81-8.7c-.29-.16-.34-.41-.19-.67l.73-1.32c.17-.32.37-.4.71-.21l3.56,1.96,2.51-4.56c-.91-1.81-.68-4,.52-6.18,1.85-3.43,5.22-4.87,8.46-3.08ZM178.81,93.28l-2.58-1.42c-.29-.16-.57-.32-.8-.51l-2.05,3.73-.02.03,4.04,2.22,2.05-3.73c-.22-.08-.45-.21-.65-.32ZM176.56,84.45c-1.25,2.27-.71,4.35.81,5.19l2.7,1.48c1.58.87,3.57.17,4.82-2.1,1.28-2.25.92-4.39-.74-5.3l-2.81-1.55c-1.43-.79-3.55,0-4.76,2.27Z"/><path class="cls-2" d="M186.18,107.33c-.22.25-.51.38-.78.14l-1.4-1.23c-.27-.24-.24-.47-.02-.72l1.25-1.43c.28-.32.51-.38.83-.1l1.3,1.15c.32.28.29.52,0,.83l-1.19,1.35ZM190.69,102.01c-.22.25-.51.38-.78.14l-1.2-1.06c-.27-.24-.24-.47-.02-.72l8.91-10.13c.28-.32.51-.38.83-.1l1.11.97c.32.28.29.52,0,.83l-8.84,10.06Z"/></svg>