<?xml version="1.0" encoding="UTF-8"?><svg id="Layer_1" xmlns="http://www.w3.org/2000/svg" viewBox="0 0 289.58 289.58"><defs><style>.cls-1{fill:#ffc229;}.cls-2{fill:#fff;}</style></defs><circle class="cls-1" cx="144.79" cy="144.79" r="94.39"/><path class="cls-2" d="M144.79,60.59c46.5,0,84.2,37.7,84.2,84.2s-37.7,84.2-84.2,84.2-84.2-37.7-84.2-84.2,37.7-84.2,84.2-84.2M144.79,58.37c-11.67,0-22.98,2.29-33.64,6.79-10.29,4.35-19.53,10.58-27.47,18.52-7.94,7.94-14.17,17.18-18.52,27.47-4.51,10.66-6.79,21.97-6.79,33.64s2.29,22.98,6.79,33.64c4.35,10.29,10.58,19.53,18.52,27.47s17.18,14.17,27.47,18.52c10.66,4.51,21.97,6.79,33.64,6.79s22.98-2.29,33.64-6.79c10.29-4.35,19.53-10.58,27.47-18.52s14.17-17.18,18.52-27.47c4.51-10.66,6.79-21.97,6.79-33.64s-2.29-22.98-6.79-33.64c-4.35-10.29-10.58-19.53-18.52-27.47-7.94-7.94-17.18-14.17-27.47-18.52-10.66-4.51-21.97-6.79-33.64-6.79h0Z"/><path class="cls-2" d="M169.86,203.51l-.54-1.21c-.94-1.83,1.45-3.68.11-3.8l-1.32.14c-2.03.33-3.05-2.51-3.58-1.28,0,0-.27,1.3-.27,1.3-.17,1.18-1.4,1.81-2.33,2.34-1,.9,2.03.95,2.37,2.98l.29,1.29c.07.29.42.4.64.2,1.62-1.57,2-1.7,4.24-1.41.3.03.52-.28.39-.55Z"/><path class="cls-2" d="M122,208.3l-2.15,2.15c-.22.22-.22.59,0,.81h0c.22.22.59.22.81,0l2.15-2.15c.22-.22.22-.59,0-.81s-.59-.22-.81,0Z"/><path class="cls-2" d="M154.89,199.65c.22-.22.22-.59,0-.81-.22-.22-.59-.22-.81,0l-2.15,2.15c-.1.1-.15.23-.16.36-.05.04-.07.11-.07.22v8.7c0,.14.06.22.21.22h.69c.15,0,.21-.13.21-.27v-8.5l2.08-2.08Z"/><path class="cls-2" d="M167.19,212.11l-2.15,2.15c-.22.22-.22.59,0,.81s.59.22.81,0l2.15-2.15c.22-.22.22-.59,0-.81-.22-.22-.59-.22-.81,0Z"/><path class="cls-2" d="M131.4,210.98h-4.05v-1.22h3.91c.15,0,.21-.11.21-.24v-2.65c0-.13-.07-.2-.2-.2h-4.83c-.13,0-.2.07-.2.2v.66c0,.11.07.15.21.15h3.89v1.07h-3.89c-.18,0-.24.08-.24.27v2.82c0,.11.07.15.21.15h4.95c.14,0,.21-.04.21-.15v-.66c0-.13-.07-.2-.2-.2Z"/><path class="cls-2" d="M128.06,205.49v-4.57c0-.18-.06-.25-.24-.25h-.63c-.18,0-.24.07-.24.25v1.07h-2.79v-1.07c0-.18-.06-.25-.24-.25h-.65c-.18,0-.24.07-.24.25v4.57c0,.17.08.27.27.27h4.49c.18,0,.27-.1.27-.27ZM126.95,204.69h-2.79v-1.64h2.79v1.64Z"/><path class="cls-2" d="M129,205.02h1.39v.87c0,.15.06.27.21.27h.69c.15,0,.21-.13.21-.27v-5.32c0-.18-.06-.27-.24-.27h-.63c-.18,0-.24.08-.24.27v.95h-1.4c-.13,0-.2.07-.2.2v.66c0,.13.07.18.21.18h1.39v1.42h-1.4c-.13,0-.2.07-.2.2v.66c0,.13.07.18.21.18Z"/><path class="cls-2" d="M139.66,208.12h1.39v.87c0,.15.06.27.21.27h.69c.15,0,.21-.13.21-.27v-5.32c0-.18-.06-.27-.24-.27h-.63c-.18,0-.24.08-.24.27v.95h-1.4c-.13,0-.2.07-.2.2v.66c0,.13.07.18.21.18h1.39v1.42h-1.4c-.13,0-.2.07-.2.2v.66c0,.13.07.18.21.18Z"/><path class="cls-2" d="M142.06,214.09h-4.05v-1.22h3.91c.15,0,.21-.11.21-.24v-2.65c0-.13-.07-.2-.2-.2h-4.83c-.13,0-.2.07-.2.2v.66c0,.11.07.15.21.15h3.89v1.07h-3.89c-.18,0-.24.08-.24.27v2.82c0,.11.07.15.21.15h4.95c.14,0,.21-.04.21-.15v-.66c0-.13-.07-.2-.2-.2Z"/><path class="cls-2" d="M138.72,208.6v-4.57c0-.18-.06-.25-.24-.25h-.63c-.18,0-.24.07-.24.25v1.07h-2.79v-1.07c0-.18-.06-.25-.24-.25h-.65c-.18,0-.24.07-.24.25v4.57c0,.17.08.27.27.27h4.49c.18,0,.27-.1.27-.27ZM137.62,207.8h-2.79v-1.64h2.79v1.64Z"/><path class="cls-2" d="M149.26,202.24h-4.88c-.13,0-.2.07-.2.2v.72c0,.13.07.18.21.18h3.96v5.26c0,.15.06.27.21.27h.69c.15,0,.21-.13.21-.27v-6.16c0-.13-.07-.2-.2-.2Z"/><path class="cls-2" d="M161.52,211.35h-5.28c-.13,0-.2.07-.2.2v.67c0,.13.07.18.21.18h4.35v2.58c0,.15.06.27.21.27h.69c.15,0,.21-.13.21-.27v-3.44c0-.13-.07-.2-.2-.2Z"/><path class="cls-2" d="M162.77,209.46h-3.32v-.91h2.16c.14,0,.21-.04.21-.15v-.69c0-.13-.07-.2-.2-.2h-4.53v-1.01h4.42c.15,0,.21-.11.21-.24v-2.64c0-.13-.07-.2-.2-.2h-5.28c-.13,0-.2.07-.2.2v.69c0,.11.07.15.21.15h4.35v.97h-4.39c-.18,0-.24.08-.24.27v2.69c0,.11.07.15.21.15h2.15v.91h-3.3c-.17,0-.22.07-.22.22v.65c0,.13.07.21.21.21h7.73c.14,0,.21-.06.21-.18v-.7c0-.13-.07-.2-.2-.2Z"/><path class="cls-2" d="M180.45,135.97l-16.38-5.93c-2.15-.78-4.04-2.15-5.44-3.96l-10.7-13.75c-1.59-2.04-4.68-2.04-6.27,0l-10.7,13.75c-1.41,1.81-3.29,3.18-5.44,3.96l-16.38,5.93c-2.43.88-3.39,3.82-1.94,5.96l9.77,14.43c1.28,1.89,2,4.11,2.08,6.4l.57,17.41c.09,2.59,2.58,4.4,5.07,3.68l16.74-4.83c2.2-.63,4.53-.63,6.73,0l16.74,4.83c2.49.72,4.99-1.1,5.07-3.68l.57-17.41c.08-2.29.8-4.51,2.08-6.4l9.77-14.43c1.45-2.14.5-5.08-1.94-5.96Z"/><path class="cls-2" d="M88.8,129.53l-4.13-1.49c-.54-.2-1.02-.54-1.37-1l-2.69-3.46c-.4-.51-1.18-.51-1.58,0l-2.69,3.46c-.35.45-.83.8-1.37,1l-4.13,1.49c-.61.22-.85.96-.49,1.5l2.46,3.63c.32.48.5,1.04.52,1.61l.14,4.39c.02.65.65,1.11,1.28.93l4.22-1.22c.55-.16,1.14-.16,1.7,0l4.22,1.22c.63.18,1.26-.28,1.28-.93l.14-4.39c.02-.58.2-1.13.52-1.61l2.46-3.63c.37-.54.13-1.28-.49-1.5Z"/><path class="cls-2" d="M85.36,157.08l-2.69-.97c-.35-.13-.66-.35-.89-.65l-1.75-2.25c-.26-.34-.77-.34-1.03,0l-1.75,2.25c-.23.3-.54.52-.89.65l-2.69.97c-.4.14-.56.63-.32.98l1.6,2.37c.21.31.33.67.34,1.05l.09,2.86c.01.42.42.72.83.6l2.74-.79c.36-.1.74-.1,1.1,0l2.74.79c.41.12.82-.18.83-.6l.09-2.86c.01-.38.13-.74.34-1.05l1.6-2.37c.24-.35.08-.83-.32-.98Z"/><path class="cls-2" d="M92,179.57l-2.15-.78c-.28-.1-.53-.28-.71-.52l-1.4-1.8c-.21-.27-.61-.27-.82,0l-1.4,1.8c-.18.24-.43.42-.71.52l-2.15.78c-.32.12-.44.5-.25.78l1.28,1.89c.17.25.26.54.27.84l.08,2.28c.01.34.34.58.66.48l2.19-.63c.29-.08.59-.08.88,0l2.19.63c.33.09.65-.14.66-.48l.08-2.28c0-.3.1-.59.27-.84l1.28-1.89c.19-.28.07-.67-.25-.78Z"/><rect class="cls-2" x="203.28" y="129.57" width="14.99" height="4.1" rx="1.47" ry="1.47" transform="translate(-37.7 128.56) rotate(-31.28)"/><rect class="cls-2" x="201.41" y="148.29" width="20.38" height="4.1" rx="1.47" ry="1.47" transform="translate(-47.3 131.71) rotate(-31.28)"/><rect class="cls-2" x="193.84" y="170.02" width="26.63" height="4.1" rx="1.47" ry="1.47" transform="translate(-59.23 132.57) rotate(-31.28)"/><path class="cls-2" d="M91.1,90.21l-1.9,1.29c-.27.18-.52.11-.68-.13l-.79-1.17c-.2-.3-.19-.51.14-.73l11.82-8.01c.24-.17.47-.12.64.12l.86,1.27c.17.24.1.44-.17.63l-1.92,1.3,2.44,3.61,5.29,1.68c.31.11.5.21.46.56l-.33,1.49c-.12.4-.36.52-.7.43l-4.41-1.37-.39,4.73c-.05.51-.38.73-.87.59l-4.57-1.37-.34,4.58c-.02.37-.3.56-.66.49l-1.51-.24c-.34-.09-.39-.29-.34-.68l.39-5.44-2.46-3.63ZM95.69,92.37l3.47,1.09.26-3.58-2.46-3.63-3.71,2.52,2.44,3.61ZM102.33,78.81c-.24-.35-.26-.38.04-.58l1.55-1.05q.3-.2.54.15l2.74,4.04,2.2-1.49q.35-.24.5-.02l1.12,1.65c.15.22.14.26-.16.46l-2.22,1.51,3.71,5.48c.16.29.17.36-.1.55l-1.52,1.03c-.27.18-.43.13-.5-.1l-7.88-11.63ZM104.74,103.16c-1.93-2.85-1.14-5.83,1.3-7.48l2.71-1.84c2.44-1.65,5.5-1.28,7.43,1.57,1.84,2.83,1.05,5.81-1.32,7.34l-2.82,1.91c-2.29,1.63-5.36,1.26-7.3-1.5ZM106.85,101.73c1.03,1.52,2.47,1.84,3.86.91l2.77-1.87c1.38-.94,1.62-2.4.59-3.92-1.03-1.52-2.51-1.9-3.95-.92l-2.66,1.8c-1.44.97-1.63,2.49-.61,4.01Z"/><path class="cls-2" d="M123.14,74.16c4.39-.95,6.48.84,7.07,3.56l1.43,6.63c.5,2.61-.72,5.18-5.04,6.12-4.4.88-6.56-.89-7.06-3.5l-1.43-6.63c-.59-2.72.64-5.23,5.03-6.18ZM123.6,76.44c-2.66.57-3.19,2.13-2.92,3.38l1.43,6.59c.26,1.18,1.37,2.28,4.04,1.77,2.59-.56,3.21-2.07,2.94-3.28l-1.43-6.59c-.26-1.22-1.4-2.44-4.06-1.87ZM140.76,90.08c.07.32,0,.64-.35.71l-1.57.34c-.35.08-.52-.09-.59-.41l-4.29-19.84c-.09-.42,0-.64.41-.73l1.44-.31c.42-.09.59.07.68.49l4.27,19.75Z"/><path class="cls-2" d="M151.66,71.64c3.88.63,5.06,2.95,4.59,5.86l-.17,1.03,2.97.49,1.13-6.92c.07-.42.23-.59.65-.52l1.45.24c.42.07.52.28.45.7l-3.25,19.94c-.05.32-.23.59-.59.53l-1.58-.26c-.36-.06-.44-.34-.38-.69l1.72-10.57-2.97-.49-.53,3.23c-.46,2.84-2.37,4.59-6.19,3.97-3.81-.62-5.07-2.88-4.61-5.73l1.1-6.72c.47-2.91,2.33-4.73,6.21-4.1ZM148.05,76.09l-1.11,6.79c-.28,1.71.57,2.61,2.41,2.91,1.84.3,2.93-.28,3.21-2l1.11-6.79c.25-1.52-.56-2.68-2.4-2.98-1.84-.3-2.94.55-3.22,2.06ZM164.22,93.86l-1.58-.26c-.36-.06-.44-.34-.38-.69l3.25-19.94c.07-.42.23-.59.65-.52l1.45.24c.42.07.52.28.45.7l-3.25,19.94c-.05.32-.23.59-.58.53Z"/><path class="cls-2" d="M184.47,81.06l2.66,1.55c3.14,1.83,3.72,5.39,1.7,8.84-1.3,2.23-3.21,3.55-5.3,3.62l-2.54,4.36-.02.03,3.73,2.18c.25.15.31.37.17.63l-.83,1.41c-.15.25-.36.29-.64.12l-15.58-9.09c-.28-.17-.33-.42-.18-.67l.76-1.3c.18-.31.38-.39.72-.19l3.51,2.05,2.62-4.5c-.86-1.83-.58-4.01.68-6.16,1.94-3.38,5.34-4.73,8.53-2.87ZM180.31,94.17l-2.55-1.49c-.28-.17-.57-.33-.79-.54l-2.15,3.68-.02.03,3.99,2.33,2.15-3.68c-.21-.09-.44-.22-.64-.33ZM178.29,85.3c-1.3,2.23-.82,4.33.68,5.21l2.66,1.55c1.56.91,3.56.26,4.87-1.97,1.33-2.22,1.03-4.36-.61-5.32l-2.77-1.62c-1.41-.83-3.54-.1-4.82,2.15Z"/><path class="cls-2" d="M187.33,108.42c-.22.24-.52.37-.78.12l-1.37-1.27c-.26-.24-.23-.48,0-.72l1.29-1.39c.29-.31.52-.37.83-.08l1.27,1.18c.31.29.28.52-.01.83l-1.22,1.32ZM191.97,103.21c-.22.24-.52.37-.78.12l-1.18-1.09c-.26-.24-.23-.48,0-.72l9.16-9.9c.29-.31.52-.37.83-.08l1.08,1c.31.29.28.52-.01.83l-9.1,9.83Z"/></svg>