<?xml version="1.0" encoding="UTF-8"?><svg id="Layer_1" xmlns="http://www.w3.org/2000/svg" viewBox="0 0 289.58 289.58"><defs><style>.cls-1{fill:#ffc229;}.cls-2{fill:#fff;}</style></defs><circle class="cls-1" cx="144.79" cy="144.79" r="94.39"/><path class="cls-2" d="M144.79,60.59c46.5,0,84.2,37.7,84.2,84.2s-37.7,84.2-84.2,84.2-84.2-37.7-84.2-84.2,37.7-84.2,84.2-84.2M144.79,58.37c-11.67,0-22.98,2.29-33.64,6.79-10.29,4.35-19.53,10.58-27.47,18.52-7.94,7.94-14.17,17.18-18.52,27.47-4.51,10.66-6.79,21.97-6.79,33.64s2.29,22.98,6.79,33.64c4.35,10.29,10.58,19.53,18.52,27.47,7.94,7.94,17.18,14.17,27.47,18.52,10.66,4.51,21.97,6.79,33.64,6.79s22.98-2.29,33.64-6.79c10.29-4.35,19.53-10.58,27.47-18.52s14.17-17.18,18.52-27.47c4.51-10.66,6.79-21.97,6.79-33.64s-2.29-22.98-6.79-33.64c-4.35-10.29-10.58-19.53-18.52-27.47-7.94-7.94-17.18-14.17-27.47-18.52-10.66-4.51-21.97-6.79-33.64-6.79h0Z"/><path class="cls-2" d="M169.86,203.51l-.54-1.21c-.94-1.83,1.45-3.68.11-3.8l-1.32.14c-2.03.33-3.05-2.51-3.58-1.28,0,0-.27,1.3-.27,1.3-.17,1.18-1.4,1.81-2.33,2.34-1,.9,2.03.95,2.37,2.98l.29,1.29c.07.29.42.4.64.2,1.62-1.57,2-1.7,4.24-1.41.3.03.52-.28.39-.55Z"/><path class="cls-2" d="M122,208.3l-2.15,2.15c-.22.22-.22.59,0,.81h0c.22.22.59.22.81,0l2.15-2.15c.22-.22.22-.59,0-.81s-.59-.22-.81,0Z"/><path class="cls-2" d="M154.89,199.65c.22-.22.22-.59,0-.81-.22-.22-.59-.22-.81,0l-2.15,2.15c-.1.1-.15.23-.16.36-.05.04-.07.11-.07.22v8.7c0,.14.06.22.21.22h.69c.15,0,.21-.13.21-.27v-8.5l2.08-2.08Z"/><path class="cls-2" d="M167.19,212.11l-2.15,2.15c-.22.22-.22.59,0,.81s.59.22.81,0l2.15-2.15c.22-.22.22-.59,0-.81-.22-.22-.59-.22-.81,0Z"/><path class="cls-2" d="M131.4,210.98h-4.05v-1.22h3.91c.15,0,.21-.11.21-.24v-2.65c0-.13-.07-.2-.2-.2h-4.83c-.13,0-.2.07-.2.2v.66c0,.11.07.15.21.15h3.89v1.07h-3.89c-.18,0-.24.08-.24.27v2.82c0,.11.07.15.21.15h4.95c.14,0,.21-.04.21-.15v-.66c0-.13-.07-.2-.2-.2Z"/><path class="cls-2" d="M128.06,205.49v-4.57c0-.18-.06-.25-.24-.25h-.63c-.18,0-.24.07-.24.25v1.07h-2.79v-1.07c0-.18-.06-.25-.24-.25h-.65c-.18,0-.24.07-.24.25v4.57c0,.17.08.27.27.27h4.49c.18,0,.27-.1.27-.27ZM126.95,204.69h-2.79v-1.64h2.79v1.64Z"/><path class="cls-2" d="M129,205.02h1.39v.87c0,.15.06.27.21.27h.69c.15,0,.21-.13.21-.27v-5.32c0-.18-.06-.27-.24-.27h-.63c-.18,0-.24.08-.24.27v.95h-1.4c-.13,0-.2.07-.2.2v.66c0,.13.07.18.21.18h1.39v1.42h-1.4c-.13,0-.2.07-.2.2v.66c0,.13.07.18.21.18Z"/><path class="cls-2" d="M139.66,208.12h1.39v.87c0,.15.06.27.21.27h.69c.15,0,.21-.13.21-.27v-5.32c0-.18-.06-.27-.24-.27h-.63c-.18,0-.24.08-.24.27v.95h-1.4c-.13,0-.2.07-.2.2v.66c0,.13.07.18.21.18h1.39v1.42h-1.4c-.13,0-.2.07-.2.2v.66c0,.13.07.18.21.18Z"/><path class="cls-2" d="M142.06,214.09h-4.05v-1.22h3.91c.15,0,.21-.11.21-.24v-2.65c0-.13-.07-.2-.2-.2h-4.83c-.13,0-.2.07-.2.2v.66c0,.11.07.15.21.15h3.89v1.07h-3.89c-.18,0-.24.08-.24.27v2.82c0,.11.07.15.21.15h4.95c.14,0,.21-.04.21-.15v-.66c0-.13-.07-.2-.2-.2Z"/><path class="cls-2" d="M138.72,208.6v-4.57c0-.18-.06-.25-.24-.25h-.63c-.18,0-.24.07-.24.25v1.07h-2.79v-1.07c0-.18-.06-.25-.24-.25h-.65c-.18,0-.24.07-.24.25v4.57c0,.17.08.27.27.27h4.49c.18,0,.27-.1.27-.27ZM137.62,207.8h-2.79v-1.64h2.79v1.64Z"/><path class="cls-2" d="M149.26,202.24h-4.88c-.13,0-.2.07-.2.2v.72c0,.13.07.18.21.18h3.96v5.26c0,.15.06.27.21.27h.69c.15,0,.21-.13.21-.27v-6.16c0-.13-.07-.2-.2-.2Z"/><path class="cls-2" d="M161.52,211.35h-5.28c-.13,0-.2.07-.2.2v.67c0,.13.07.18.21.18h4.35v2.58c0,.15.06.27.21.27h.69c.15,0,.21-.13.21-.27v-3.44c0-.13-.07-.2-.2-.2Z"/><path class="cls-2" d="M162.77,209.46h-3.32v-.91h2.16c.14,0,.21-.04.21-.15v-.69c0-.13-.07-.2-.2-.2h-4.53v-1.01h4.42c.15,0,.21-.11.21-.24v-2.64c0-.13-.07-.2-.2-.2h-5.28c-.13,0-.2.07-.2.2v.69c0,.11.07.15.21.15h4.35v.97h-4.39c-.18,0-.24.08-.24.27v2.69c0,.11.07.15.21.15h2.15v.91h-3.3c-.17,0-.22.07-.22.22v.65c0,.13.07.21.21.21h7.73c.14,0,.21-.06.21-.18v-.7c0-.13-.07-.2-.2-.2Z"/><path class="cls-2" d="M180.45,135.97l-16.38-5.93c-2.15-.78-4.04-2.15-5.44-3.96l-10.7-13.75c-1.59-2.04-4.68-2.04-6.27,0l-10.7,13.75c-1.41,1.81-3.29,3.18-5.44,3.96l-16.38,5.93c-2.43.88-3.39,3.82-1.94,5.96l9.77,14.43c1.28,1.89,2,4.11,2.08,6.4l.57,17.41c.09,2.59,2.58,4.4,5.07,3.68l16.74-4.83c2.2-.63,4.53-.63,6.73,0l16.74,4.83c2.49.72,4.99-1.1,5.07-3.68l.57-17.41c.08-2.29.8-4.51,2.08-6.4l9.77-14.43c1.45-2.14.5-5.08-1.94-5.96Z"/><path class="cls-2" d="M88.8,129.53l-4.13-1.49c-.54-.2-1.02-.54-1.37-1l-2.69-3.46c-.4-.51-1.18-.51-1.58,0l-2.69,3.46c-.35.45-.83.8-1.37,1l-4.13,1.49c-.61.22-.85.96-.49,1.5l2.46,3.63c.32.48.5,1.04.52,1.61l.14,4.39c.02.65.65,1.11,1.28.93l4.22-1.22c.55-.16,1.14-.16,1.7,0l4.22,1.22c.63.18,1.26-.28,1.28-.93l.14-4.39c.02-.58.2-1.13.52-1.61l2.46-3.63c.37-.54.13-1.28-.49-1.5Z"/><path class="cls-2" d="M85.36,157.08l-2.69-.97c-.35-.13-.66-.35-.89-.65l-1.75-2.25c-.26-.34-.77-.34-1.03,0l-1.75,2.25c-.23.3-.54.52-.89.65l-2.69.97c-.4.14-.56.63-.32.98l1.6,2.37c.21.31.33.67.34,1.05l.09,2.86c.01.42.42.72.83.6l2.74-.79c.36-.1.74-.1,1.1,0l2.74.79c.41.12.82-.18.83-.6l.09-2.86c.01-.38.13-.74.34-1.05l1.6-2.37c.24-.35.08-.83-.32-.98Z"/><path class="cls-2" d="M92,179.57l-2.15-.78c-.28-.1-.53-.28-.71-.52l-1.4-1.8c-.21-.27-.61-.27-.82,0l-1.4,1.8c-.18.24-.43.42-.71.52l-2.15.78c-.32.12-.44.5-.25.78l1.28,1.89c.17.25.26.54.27.84l.08,2.28c.01.34.34.58.66.48l2.19-.63c.29-.08.59-.08.88,0l2.19.63c.33.09.65-.14.66-.48l.08-2.28c0-.3.1-.59.27-.84l1.28-1.89c.19-.28.07-.67-.25-.78Z"/><rect class="cls-2" x="203.28" y="129.57" width="14.99" height="4.1" rx="1.47" ry="1.47" transform="translate(-37.7 128.56) rotate(-31.28)"/><rect class="cls-2" x="201.41" y="148.29" width="20.38" height="4.1" rx="1.47" ry="1.47" transform="translate(-47.3 131.71) rotate(-31.28)"/><rect class="cls-2" x="193.84" y="170.02" width="26.63" height="4.1" rx="1.47" ry="1.47" transform="translate(-59.23 132.57) rotate(-31.28)"/><path class="cls-2" d="M97.67,104.58l-7.91-11.57c-.24-.35-.25-.54.1-.78l8.03-5.49c.24-.17.47-.12.64.12l.92,1.35c.17.24.11.44-.17.63l-6.3,4.31,5.68,8.3,6.57-4.49c.24-.17.47-.12.64.12l.94,1.38c.17.24.11.44-.16.63l-8.19,5.6c-.32.22-.56.22-.78-.1ZM104.4,80.37c-.24-.35-.24-.59.11-.83l1.22-.83c.35-.24.57-.15.81.2l11.41,16.67c.18.27.24.59-.05.79l-1.32.91c-.3.2-.52.12-.7-.16l-5.99-8.76-2.49,1.7,5.93,8.67c.19.27.24.59-.05.79l-1.32.91c-.3.2-.52.12-.7-.16l-11.46-16.76c-.24-.35-.24-.59.11-.83l1.22-.83c.35-.24.57-.15.81.2l4.07,5.95,2.49-1.7-4.07-5.95Z"/><path class="cls-2" d="M119.08,85.67l-2.66-12.09c-.09-.42-.03-.6.39-.69l10.3-2.27c.29-.06.48.06.55.35l.35,1.6c.06.29-.07.45-.39.52l-8.25,1.82,1.81,8.22,8.57-1.89c.29-.06.48.06.55.35l.36,1.63c.06.29-.07.45-.39.52l-10.49,2.31c-.38.08-.6,0-.69-.38ZM128.18,96.24l-1.82-8.28c-.09-.42,0-.64.41-.73l1.44-.32c.42-.09.59.07.68.49l1.38,6.27,9.05-1.99c.29-.06.48.06.55.35l.35,1.57c.06.29-.07.45-.39.52l-11.06,2.44c-.32.07-.51-.02-.57-.31ZM136.39,75.82l1.93,8.76c.07.32,0,.64-.35.71l-1.57.35c-.35.08-.52-.09-.59-.41l-3.61-16.41c-.09-.42,0-.6.42-.7l1.44-.32c.42-.09.59.07.68.49l1.12,5.08,2.62-.58c.29-.06.48.06.55.35l.35,1.57c.06.29-.07.45-.39.52l-2.59.57Z"/><path class="cls-2" d="M150.76,77.49c3.91.64,4.94,3.27,4.49,5.98l-.23,1.42c-.5,2.64-2.41,4.78-6.26,4.15-3.75-.62-4.9-3.33-4.39-5.97l.22-1.36c.45-2.71,2.33-4.86,6.17-4.23ZM152.69,73.63l4.43.73c.29.05.43.24.38.53l-.27,1.62c-.05.29-.23.39-.55.34l-11.31-1.86c-.32-.05-.45-.27-.4-.56l.24-1.49c.06-.36.21-.5.6-.43l4.33.71.44-2.65c.07-.42.23-.59.65-.52l1.45.24c.42.07.52.28.45.7l-.44,2.65ZM147.11,82.14l-.22,1.36c-.28,1.71.29,2.87,2.26,3.19,1.94.32,3.06-.46,3.35-2.2l.23-1.42c.29-1.78-.35-2.91-2.35-3.24-1.91-.31-2.98.57-3.27,2.32ZM165.61,73c.07-.42.23-.59.65-.52l1.45.24c.42.07.52.28.45.7l-3.28,19.94c-.05.32-.23.59-.59.53l-1.58-.26c-.36-.06-.45-.27-.4-.6l1.72-10.47-2.97-.49-1.71,10.37c-.05.32-.23.59-.59.53l-1.58-.26c-.36-.06-.45-.27-.4-.6l3.3-20.03c.07-.42.23-.59.65-.52l1.45.24c.42.07.52.28.45.7l-1.17,7.11,2.97.49,1.17-7.11Z"/><path class="cls-2" d="M184.57,81.11l2.66,1.56c3.14,1.84,3.71,5.4,1.69,8.84-1.31,2.23-3.21,3.54-5.3,3.61l-2.55,4.35-.02.03,3.73,2.18c.25.15.31.37.16.63l-.83,1.41c-.15.25-.36.28-.64.12l-15.57-9.12c-.28-.17-.32-.42-.18-.67l.76-1.3c.18-.31.38-.39.72-.19l3.5,2.05,2.63-4.49c-.86-1.83-.57-4.02.69-6.16,1.94-3.38,5.35-4.72,8.54-2.86ZM180.39,94.22l-2.54-1.49c-.28-.17-.57-.33-.79-.54l-2.15,3.67-.02.03,3.98,2.33,2.15-3.67c-.21-.09-.44-.22-.64-.34ZM178.38,85.34c-1.31,2.23-.83,4.33.67,5.21l2.66,1.55c1.55.91,3.56.27,4.87-1.97,1.34-2.22,1.04-4.36-.6-5.32l-2.77-1.62c-1.41-.83-3.55-.1-4.82,2.15Z"/><path class="cls-2" d="M187.38,108.47c-.22.24-.52.37-.78.12l-1.37-1.27c-.26-.24-.23-.48,0-.72l1.29-1.39c.29-.31.52-.37.83-.08l1.27,1.18c.31.29.27.52-.01.83l-1.22,1.32ZM192.03,103.26c-.22.24-.52.37-.78.12l-1.18-1.09c-.26-.24-.23-.48,0-.72l9.18-9.89c.29-.31.52-.37.83-.08l1.08,1c.31.29.27.52-.02.83l-9.11,9.82Z"/></svg>