<?xml version="1.0" encoding="UTF-8"?><svg id="Layer_1" xmlns="http://www.w3.org/2000/svg" viewBox="0 0 289.58 289.58"><defs><style>.cls-1{fill:#ffc229;}.cls-2{fill:#fff;}</style></defs><circle class="cls-1" cx="144.79" cy="144.79" r="94.39"/><path class="cls-2" d="M144.79,60.59c46.5,0,84.2,37.7,84.2,84.2s-37.7,84.2-84.2,84.2-84.2-37.7-84.2-84.2,37.7-84.2,84.2-84.2M144.79,58.37c-11.67,0-22.98,2.29-33.64,6.79-10.29,4.35-19.53,10.58-27.47,18.52-7.94,7.94-14.17,17.18-18.52,27.47-4.51,10.66-6.79,21.97-6.79,33.64s2.29,22.98,6.79,33.64c4.35,10.29,10.58,19.53,18.52,27.47s17.18,14.17,27.47,18.52c10.66,4.51,21.97,6.79,33.64,6.79s22.98-2.29,33.64-6.79c10.29-4.35,19.53-10.58,27.47-18.52s14.17-17.18,18.52-27.47c4.51-10.66,6.79-21.97,6.79-33.64s-2.29-22.98-6.79-33.64c-4.35-10.29-10.58-19.53-18.52-27.47-7.94-7.94-17.18-14.17-27.47-18.52-10.66-4.51-21.97-6.79-33.64-6.79h0Z"/><path class="cls-2" d="M169.86,203.51l-.54-1.21c-.94-1.83,1.45-3.68.11-3.8l-1.32.14c-2.03.33-3.05-2.51-3.58-1.28,0,0-.27,1.3-.27,1.3-.17,1.18-1.4,1.81-2.33,2.34-1,.9,2.03.95,2.37,2.98l.29,1.29c.07.29.42.4.64.2,1.62-1.57,2-1.7,4.24-1.41.3.03.52-.28.39-.55Z"/><path class="cls-2" d="M122,208.3l-2.15,2.15c-.22.22-.22.59,0,.81h0c.22.22.59.22.81,0l2.15-2.15c.22-.22.22-.59,0-.81s-.59-.22-.81,0Z"/><path class="cls-2" d="M154.89,199.65c.22-.22.22-.59,0-.81-.22-.22-.59-.22-.81,0l-2.15,2.15c-.1.1-.15.23-.16.36-.05.04-.07.11-.07.22v8.7c0,.14.06.22.21.22h.69c.15,0,.21-.13.21-.27v-8.5l2.08-2.08Z"/><path class="cls-2" d="M167.19,212.11l-2.15,2.15c-.22.22-.22.59,0,.81s.59.22.81,0l2.15-2.15c.22-.22.22-.59,0-.81-.22-.22-.59-.22-.81,0Z"/><path class="cls-2" d="M131.4,210.98h-4.05v-1.22h3.91c.15,0,.21-.11.21-.24v-2.65c0-.13-.07-.2-.2-.2h-4.83c-.13,0-.2.07-.2.2v.66c0,.11.07.15.21.15h3.89v1.07h-3.89c-.18,0-.24.08-.24.27v2.82c0,.11.07.15.21.15h4.95c.14,0,.21-.04.21-.15v-.66c0-.13-.07-.2-.2-.2Z"/><path class="cls-2" d="M128.06,205.49v-4.57c0-.18-.06-.25-.24-.25h-.63c-.18,0-.24.07-.24.25v1.07h-2.79v-1.07c0-.18-.06-.25-.24-.25h-.65c-.18,0-.24.07-.24.25v4.57c0,.17.08.27.27.27h4.49c.18,0,.27-.1.27-.27ZM126.95,204.69h-2.79v-1.64h2.79v1.64Z"/><path class="cls-2" d="M129,205.02h1.39v.87c0,.15.06.27.21.27h.69c.15,0,.21-.13.21-.27v-5.32c0-.18-.06-.27-.24-.27h-.63c-.18,0-.24.08-.24.27v.95h-1.4c-.13,0-.2.07-.2.2v.66c0,.13.07.18.21.18h1.39v1.42h-1.4c-.13,0-.2.07-.2.2v.66c0,.13.07.18.21.18Z"/><path class="cls-2" d="M139.66,208.12h1.39v.87c0,.15.06.27.21.27h.69c.15,0,.21-.13.21-.27v-5.32c0-.18-.06-.27-.24-.27h-.63c-.18,0-.24.08-.24.27v.95h-1.4c-.13,0-.2.07-.2.2v.66c0,.13.07.18.21.18h1.39v1.42h-1.4c-.13,0-.2.07-.2.2v.66c0,.13.07.18.21.18Z"/><path class="cls-2" d="M142.06,214.09h-4.05v-1.22h3.91c.15,0,.21-.11.21-.24v-2.65c0-.13-.07-.2-.2-.2h-4.83c-.13,0-.2.07-.2.2v.66c0,.11.07.15.21.15h3.89v1.07h-3.89c-.18,0-.24.08-.24.27v2.82c0,.11.07.15.21.15h4.95c.14,0,.21-.04.21-.15v-.66c0-.13-.07-.2-.2-.2Z"/><path class="cls-2" d="M138.72,208.6v-4.57c0-.18-.06-.25-.24-.25h-.63c-.18,0-.24.07-.24.25v1.07h-2.79v-1.07c0-.18-.06-.25-.24-.25h-.65c-.18,0-.24.07-.24.25v4.57c0,.17.08.27.27.27h4.49c.18,0,.27-.1.27-.27ZM137.62,207.8h-2.79v-1.64h2.79v1.64Z"/><path class="cls-2" d="M149.26,202.24h-4.88c-.13,0-.2.07-.2.2v.72c0,.13.07.18.21.18h3.96v5.26c0,.15.06.27.21.27h.69c.15,0,.21-.13.21-.27v-6.16c0-.13-.07-.2-.2-.2Z"/><path class="cls-2" d="M161.52,211.35h-5.28c-.13,0-.2.07-.2.2v.67c0,.13.07.18.21.18h4.35v2.58c0,.15.06.27.21.27h.69c.15,0,.21-.13.21-.27v-3.44c0-.13-.07-.2-.2-.2Z"/><path class="cls-2" d="M162.77,209.46h-3.32v-.91h2.16c.14,0,.21-.04.21-.15v-.69c0-.13-.07-.2-.2-.2h-4.53v-1.01h4.42c.15,0,.21-.11.21-.24v-2.64c0-.13-.07-.2-.2-.2h-5.28c-.13,0-.2.07-.2.2v.69c0,.11.07.15.21.15h4.35v.97h-4.39c-.18,0-.24.08-.24.27v2.69c0,.11.07.15.21.15h2.15v.91h-3.3c-.17,0-.22.07-.22.22v.65c0,.13.07.21.21.21h7.73c.14,0,.21-.06.21-.18v-.7c0-.13-.07-.2-.2-.2Z"/><path class="cls-2" d="M180.45,135.97l-16.38-5.93c-2.15-.78-4.04-2.15-5.44-3.96l-10.7-13.75c-1.59-2.04-4.68-2.04-6.27,0l-10.7,13.75c-1.41,1.81-3.29,3.18-5.44,3.96l-16.38,5.93c-2.43.88-3.39,3.82-1.94,5.96l9.77,14.43c1.28,1.89,2,4.11,2.08,6.4l.57,17.41c.09,2.59,2.58,4.4,5.07,3.68l16.74-4.83c2.2-.63,4.53-.63,6.73,0l16.74,4.83c2.49.72,4.99-1.1,5.07-3.68l.57-17.41c.08-2.29.8-4.51,2.08-6.4l9.77-14.43c1.45-2.14.5-5.08-1.94-5.96Z"/><path class="cls-2" d="M88.8,129.53l-4.13-1.49c-.54-.2-1.02-.54-1.37-1l-2.69-3.46c-.4-.51-1.18-.51-1.58,0l-2.69,3.46c-.35.45-.83.8-1.37,1l-4.13,1.49c-.61.22-.85.96-.49,1.5l2.46,3.63c.32.48.5,1.04.52,1.61l.14,4.39c.02.65.65,1.11,1.28.93l4.22-1.22c.55-.16,1.14-.16,1.7,0l4.22,1.22c.63.18,1.26-.28,1.28-.93l.14-4.39c.02-.58.2-1.13.52-1.61l2.46-3.63c.37-.54.13-1.28-.49-1.5Z"/><path class="cls-2" d="M85.36,157.08l-2.69-.97c-.35-.13-.66-.35-.89-.65l-1.75-2.25c-.26-.34-.77-.34-1.03,0l-1.75,2.25c-.23.3-.54.52-.89.65l-2.69.97c-.4.14-.56.63-.32.98l1.6,2.37c.21.31.33.67.34,1.05l.09,2.86c.01.42.42.72.83.6l2.74-.79c.36-.1.74-.1,1.1,0l2.74.79c.41.12.82-.18.83-.6l.09-2.86c.01-.38.13-.74.34-1.05l1.6-2.37c.24-.35.08-.83-.32-.98Z"/><path class="cls-2" d="M92,179.57l-2.15-.78c-.28-.1-.53-.28-.71-.52l-1.4-1.8c-.21-.27-.61-.27-.82,0l-1.4,1.8c-.18.24-.43.42-.71.52l-2.15.78c-.32.12-.44.5-.25.78l1.28,1.89c.17.25.26.54.27.84l.08,2.28c.01.34.34.58.66.48l2.19-.63c.29-.08.59-.08.88,0l2.19.63c.33.09.65-.14.66-.48l.08-2.28c0-.3.1-.59.27-.84l1.28-1.89c.19-.28.07-.67-.25-.78Z"/><rect class="cls-2" x="203.28" y="129.57" width="14.99" height="4.1" rx="1.47" ry="1.47" transform="translate(-37.7 128.56) rotate(-31.28)"/><rect class="cls-2" x="201.41" y="148.29" width="20.38" height="4.1" rx="1.47" ry="1.47" transform="translate(-47.3 131.71) rotate(-31.28)"/><rect class="cls-2" x="193.84" y="170.02" width="26.63" height="4.1" rx="1.47" ry="1.47" transform="translate(-59.23 132.57) rotate(-31.28)"/><path class="cls-2" d="M108,90.88c-.39.17-.66.03-.82-.33l-4.52-10.64c-.17-.39-.12-.62.27-.79l9.77-4.15c.39-.17.59-.04.76.36l4.52,10.64c.15.36.06.65-.33.82l-9.64,4.1ZM108.87,87.81l6-2.55-3.06-7.2-6,2.55,3.06,7.2ZM123.22,92.7l6.85.79c.43.1.57.33.46.66l-.3,1.48c-.11.33-.35.43-.64.34l-6.64-.74-4.13,5.35c-.13.27-.38.37-.69.22l-1.31-.83c-.31-.15-.3-.37-.11-.77l4.15-5.46-1.86-4.37c-.17-.39-.12-.62.27-.79l1.36-.58c.39-.17.59-.04.76.36l1.84,4.34ZM126.14,85.92l-1.48.63c-.33.14-.55-.05-.7-.38l-2.85-6.72-3.23,1.37c-.3.13-.5.07-.62-.2l-.63-1.48c-.12-.27-.03-.49.24-.6l3.25-1.38-2.16-5.09c-.17-.39-.12-.62.27-.79l1.36-.58c.39-.17.59-.04.76.36l5.99,14.11c.13.3.12.62-.21.76Z"/><path class="cls-2" d="M139.03,81.27l5.63,3.61c.37.25.41.58.19.85l-.94,1.24c-.22.27-.48.28-.72.09l-5.36-3.39-5.12,3.78c-.22.2-.48.21-.72-.04l-1.02-1.21c-.24-.25-.15-.52.17-.82l5.31-3.95-.22-6.51-4.58.15c-.33.01-.5-.18-.51-.47l-.05-1.51c-.01-.36.11-.53.51-.54l11.78-.39c.29,0,.46.15.47.44l.05,1.64c.01.29-.15.43-.48.44l-4.61.15.22,6.45ZM151.64,91.13l-1.6.05c-.36.01-.5-.25-.51-.61l-.25-7.53-3.86.13c-.39.01-.63-.08-.64-.5l-.05-1.44c-.01-.39.21-.53.57-.54l3.89-.13-.1-3.08-3.86.13c-.39.01-.62-.08-.64-.5l-.05-1.44c-.01-.39.21-.53.57-.54l3.89-.13-.15-4.61c-.01-.43.11-.63.54-.64l1.47-.05c.43-.01.56.18.58.6l.68,20.19c.01.33-.11.63-.47.64Z"/><path class="cls-2" d="M168.88,74.32l2.92.97c3.45,1.15,4.75,4.51,3.49,8.3-.82,2.46-2.41,4.13-4.44,4.63l-1.59,4.79v.03s4.09,1.36,4.09,1.36c.28.09.38.3.29.58l-.52,1.55c-.09.28-.29.35-.6.25l-17.12-5.69c-.31-.1-.4-.34-.31-.62l.48-1.43c.11-.34.29-.46.66-.33l3.85,1.28,1.64-4.94c-1.22-1.61-1.39-3.81-.61-6.17,1.2-3.71,4.25-5.73,7.76-4.56ZM167.5,88.01l-2.8-.93c-.31-.1-.62-.21-.88-.36l-1.34,4.04v.03s4.37,1.46,4.37,1.46l1.34-4.04c-.23-.04-.48-.12-.69-.2ZM163.69,79.74c-.82,2.46.09,4.41,1.73,4.96l2.92.97c1.71.57,3.54-.48,4.36-2.93.85-2.44.11-4.48-1.69-5.08l-3.05-1.01c-1.55-.52-3.49.63-4.27,3.1Z"/><path class="cls-2" d="M177.28,100.51c-.17.28-.43.47-.74.28l-1.6-.96c-.31-.19-.32-.42-.15-.7l.98-1.63c.22-.37.43-.47.8-.25l1.49.89c.36.22.38.45.16.82l-.93,1.54ZM180.76,94.46c-.17.28-.43.47-.74.28l-1.38-.83c-.31-.19-.32-.42-.15-.7l6.94-11.57c.22-.36.43-.47.8-.25l1.26.76c.37.22.38.45.16.82l-6.89,11.48Z"/></svg>