<svg width="40" height="40" viewBox="0 0 40 40" fill="none" xmlns="http://www.w3.org/2000/svg">
<g id="mdi:stamper">
<path id="Vector" d="M20 5C18.6739 5 17.4021 5.52678 16.4645 6.46447C15.5268 7.40215 15 8.67392 15 10C15 15 23.3333 21.6667 9.99999 21.6667C9.11593 21.6667 8.26809 22.0179 7.64297 22.643C7.01785 23.2681 6.66666 24.1159 6.66666 25V28.3333H33.3333V25C33.3333 24.1159 32.9821 23.2681 32.357 22.643C31.7319 22.0179 30.884 21.6667 30 21.6667C16.6667 21.6667 25 15 25 10C25 6.66667 22.7667 5 20 5ZM9.99999 31.6667V35H30V31.6667H9.99999Z" fill="#FFC655"/>
</g>
</svg>
