<svg width="50" height="50" viewBox="0 0 50 50" fill="none" xmlns="http://www.w3.org/2000/svg">
<g id="mdi:autorenew">
<path id="Vector" d="M37.5 25L31.25 25L39.5833 33.3334L47.9167 25L41.6667 25C41.6667 20.5798 39.9107 16.3405 36.7851 13.2149C33.6595 10.0893 29.4203 8.33337 25 8.33337C21.7292 8.33337 18.6875 9.29171 16.125 10.9167L19.1667 13.9584C20.9604 12.9968 22.9648 12.4957 25 12.5C28.3152 12.5 31.4946 13.817 33.8388 16.1612C36.183 18.5054 37.5 21.6848 37.5 25ZM33.875 39.0834L30.8333 36.0417C29.0833 36.9584 27.0833 37.5 25 37.5C21.6848 37.5 18.5054 36.1831 16.1612 33.8389C13.817 31.4947 12.5 28.3152 12.5 25L18.75 25L10.4167 16.6667L2.08334 25L8.33334 25C8.33333 29.4203 10.0893 33.6595 13.2149 36.7852C16.3405 39.9108 20.5797 41.6667 25 41.6667C28.2708 41.6667 31.3125 40.7084 33.875 39.0834Z" fill="#1F1F1F"/>
</g>
</svg>
