<svg width="34" height="34" viewBox="0 0 34 34" fill="none" xmlns="http://www.w3.org/2000/svg">
<path d="M17 0.333313C26.1667 0.333313 33.6667 7.83331 33.6667 17C33.6667 26.1666 26.1667 33.6666 17 33.6666C7.83334 33.6666 0.333336 26.1666 0.333336 17C0.333336 7.83331 7.83334 0.333313 17 0.333313ZM17 3.66665C13.8333 3.66665 11 4.66665 8.83334 6.49998L27.5 25.1666C29.1667 22.8333 30.3333 20 30.3333 17C30.3333 9.66665 24.3333 3.66665 17 3.66665ZM25.1667 27.5L6.5 8.83331C4.66667 11 3.66667 13.8333 3.66667 17C3.66667 24.3333 9.66667 30.3333 17 30.3333C20.1667 30.3333 23 29.3333 25.1667 27.5Z" fill="#ADADAD"/>
</svg>
