<?xml version="1.0" encoding="UTF-8"?><svg id="Layer_1" xmlns="http://www.w3.org/2000/svg" viewBox="0 0 289.58 289.58"><defs><style>.cls-1{fill:#ffd72e;}.cls-2{fill:#1f1f1f;}</style></defs><path class="cls-1" d="M126.25,130.46c10.24-7.6,23.55-11,36.17-9.18,1.32.19,2.09,1.59,1.58,2.82l-9.27,22.16c-.47,1.14.47,2.36,1.69,2.18,8.97-1.36,18.07-1.82,27.12-1.38,3.5.17,5.17,4.39,2.73,6.91-6.74,6.98-15.18,15.42-22.1,22.55-3.67,3.78-9.69,3.92-13.53.32-10.09-9.48-28.57-25.26-30.98-27.2-4.68-3.76-15.54-8.48-17.37-14.51-1.58-5.18,8.97-17.74,14.85-24.29,1.2-1.34,3.42-.67,3.69,1.11.85,5.57,1.26,11.3,1.79,16.94.17,1.76,2.19,2.63,3.61,1.58Z"/><path class="cls-2" d="M157.25,181.93c-2.99,0-5.98-1.09-8.31-3.27-10.03-9.43-28.41-25.12-30.83-27.07-1.26-1.01-3.12-2.17-5.1-3.4-5.4-3.36-11.53-7.18-13.1-12.33-.93-3.07-.36-9.17,15.38-26.69,1.21-1.34,3.03-1.86,4.76-1.34,1.74.52,2.98,1.95,3.25,3.74.67,4.44,1.08,9,1.48,13.41.1,1.08.19,2.16.29,3.23,10.79-7.88,24.5-11.31,37.69-9.41,1.39.2,2.59,1.02,3.29,2.25.7,1.24.79,2.7.24,4.02l-8.64,20.66c8.59-1.2,17.33-1.59,26-1.17,2.61.13,4.83,1.72,5.79,4.15.96,2.43.43,5.11-1.38,6.99-3.57,3.7-7.68,7.87-11.65,11.9-3.6,3.65-7.19,7.3-10.45,10.66-2.37,2.44-5.54,3.67-8.72,3.67ZM118.48,113.1c-14.68,16.47-13.92,20.85-13.79,21.3,1.02,3.35,6.53,6.78,10.96,9.54,2.11,1.31,4.1,2.55,5.59,3.75,2.45,1.97,21.01,17.81,31.12,27.32,2.82,2.66,7.32,2.55,10.02-.23,3.27-3.37,6.87-7.03,10.48-10.69,3.96-4.02,8.06-8.18,11.61-11.86.64-.66.44-1.39.33-1.68-.11-.28-.47-.95-1.39-1-8.88-.43-17.84.02-26.63,1.35-1.45.22-2.92-.36-3.82-1.52-.91-1.16-1.12-2.73-.55-4.09l9.04-21.63c-11.84-1.55-24.1,1.65-33.73,8.8-1.39,1.03-3.23,1.24-4.81.54-1.58-.71-2.62-2.16-2.79-3.88-.12-1.23-.23-2.46-.34-3.69-.37-4.07-.74-8.28-1.33-12.33Z"/></svg>