<?xml version="1.0" encoding="UTF-8"?><svg id="Layer_1" xmlns="http://www.w3.org/2000/svg" viewBox="0 0 289.58 289.58"><defs><style>.cls-1{fill:#97c6ff;}.cls-2{fill:#c2ffe8;}.cls-3{fill:#1f1f1f;}.cls-4{fill:#ffa348;}</style></defs><path class="cls-1" d="M128.12,130.37s0,0,0,0c0,0-62.45-25.23-44.71,3.31,17.74,28.54,70.58,55.54,88.29,47.64l-43.57-50.95Z"/><path class="cls-3" d="M163.83,185.22c-23.75,0-66.9-25.05-82.55-50.22-1.5-2.41-6.05-9.74-1.79-14.42,4.95-5.44,18.7-2.39,28.6.37,11.04,3.08,21.08,7.15,21.14,7.18l.45.23,46.08,53.88-3.06,1.36c-2.47,1.1-5.48,1.62-8.88,1.62ZM88.61,122.53c-2.69,0-4.62.45-5.47,1.46-1.01,1.21-.12,4.33,2.38,8.36,7.97,12.82,24.12,26.5,43.2,36.59,15.59,8.24,30.06,12.32,38.53,11.04l-40.65-47.53c-13.86-5.55-29.63-9.93-38-9.93Z"/><path class="cls-2" d="M108.78,137.91c-2.91-2.99-2.47-8.11.94-11.05,9.26-8.02,28.69-20.75,53.02-13.81,31.76,9.06,37.93,37.04,38.85,49.35.57,7.65-.69,15.92-2.66,24.01-1.72,7.05-15.43,2.07-19.51.56-8.58-3.17-18.53-8.18-31.81-16.22-14.74-8.93-30.89-24.67-38.82-32.84Z"/><path class="cls-3" d="M192.64,192.59c-4.56,0-9.95-1.74-14.1-3.27-8.93-3.3-19.17-8.52-32.23-16.43-14.88-9.01-31.02-24.69-39.32-33.24-1.81-1.86-2.74-4.37-2.62-7.07.13-2.9,1.48-5.68,3.72-7.62,9.77-8.46,29.96-21.56,55.34-14.33,34.9,9.95,39.94,41.99,40.65,51.57.52,7-.37,15.11-2.73,24.79-.48,1.98-1.68,3.53-3.46,4.48-1.49.79-3.29,1.11-5.25,1.11ZM148.68,113.55c-16.84,0-30.13,8.97-37.33,15.2-1.2,1.04-1.93,2.52-2,4.05-.06,1.31.37,2.5,1.21,3.37h0c8.13,8.37,23.93,23.72,38.33,32.44,12.78,7.74,22.75,12.83,31.38,16.01,10.19,3.77,13.94,3.14,15.27,2.44.52-.28.8-.65.95-1.25,2.23-9.16,3.08-16.76,2.6-23.24-.84-11.23-6.12-38.31-37.04-47.13-4.66-1.33-9.13-1.9-13.37-1.9Z"/><ellipse class="cls-4" cx="176.17" cy="121.46" rx="6.55" ry="8.75" transform="translate(-25.61 192.67) rotate(-54.02)"/><path class="cls-3" d="M178.33,131.35c-2.55,0-5.2-.91-7.48-2.56-2.33-1.69-4.03-3.99-4.8-6.47-.84-2.7-.47-5.42,1.01-7.46,1.48-2.04,3.95-3.23,6.78-3.28,2.62-.05,5.32.87,7.64,2.56,2.33,1.69,4.03,3.99,4.8,6.47.84,2.7.47,5.42-1.01,7.46s-3.95,3.23-6.78,3.28c-.05,0-.11,0-.16,0ZM174,116.57s-.06,0-.08,0c-.73.01-2.06.18-2.81,1.21-.75,1.03-.5,2.35-.28,3.05.45,1.44,1.52,2.86,2.96,3.9,1.44,1.04,3.11,1.65,4.63,1.61.73-.01,2.06-.18,2.81-1.21h0c.75-1.03.5-2.35.28-3.05-.45-1.44-1.52-2.86-2.96-3.9-1.41-1.02-3.06-1.61-4.55-1.61Z"/></svg>