<?xml version="1.0" encoding="UTF-8"?><svg id="Layer_1" xmlns="http://www.w3.org/2000/svg" viewBox="0 0 289.58 289.58"><defs><style>.cls-1{fill:#52b9ff;}.cls-2{fill:#1f1f1f;}</style></defs><path class="cls-1" d="M99.28,140.03c-1.5-1.19-1.79-3.34-.68-4.89,7.63-10.61,37.31-46.12,76.62-19.39,39.65,26.95,8.5,68.97-.6,79.78-1.25,1.48-3.44,1.69-4.96.49l-70.39-55.98Z"/><path class="cls-2" d="M171.91,199.31c-1.33,0-2.66-.44-3.79-1.34l-70.39-55.98c-2.54-2.02-3.05-5.67-1.15-8.31,4.42-6.15,13.85-17.51,27.31-24.46,17.42-8.99,35.16-7.5,52.74,4.46,11.86,8.06,18.7,18.18,20.34,30.07,3.11,22.55-13.25,44.85-20.43,53.39-1.2,1.43-2.91,2.17-4.63,2.17ZM100.83,138.08l70.39,55.98c.46.37,1.11.3,1.49-.14,5.27-6.26,22.23-28.34,19.31-49.48-1.44-10.43-7.56-19.39-18.2-26.62-37.19-25.28-65.42,7.99-73.19,18.79-.34.47-.25,1.12.2,1.48h0Z"/></svg>