<?xml version="1.0" encoding="UTF-8"?><svg id="Layer_1" xmlns="http://www.w3.org/2000/svg" viewBox="0 0 289.58 289.58"><defs><style>.cls-1{fill:#ff3131;}.cls-2{fill:#fff;}.cls-3{fill:#1f1f1f;}</style></defs><path class="cls-1" d="M109.34,143.29s21.78-39.74,79.89-34.92c-16.04,24.61-23.57,53.57-25.88,85.19l-54.01-50.27Z"/><path class="cls-3" d="M165.46,198.95l-59.25-55.15.93-1.71c.23-.43,5.86-10.53,18.87-20.08,11.94-8.77,32.63-18.68,63.42-16.13l4.18.35-2.29,3.51c-14.66,22.48-22.99,49.96-25.48,84.01l-.38,5.2ZM112.55,142.87l48.73,45.36c2.84-30.81,10.58-56.29,23.59-77.63-46.23-2.17-67.61,25.23-72.32,32.28Z"/><path class="cls-2" d="M145.81,166.86s-40.74-37.65-49.85-27.54c-10.58,11.74,66.99,64.98,73.76,59.76s-23.91-32.22-23.91-32.22Z"/><path class="cls-3" d="M168.5,201.92c-3.41,0-10.93-2.34-28.61-13.84-12.17-7.92-28.76-20.25-38.83-31.13-3.05-3.3-12.35-13.33-6.96-19.3,1.42-1.58,3.36-2.43,5.77-2.54,6.27-.28,15.97,4.59,29.6,14.9,9.49,7.18,17.51,14.53,18.01,14.99,4.4,3.87,26,23.34,25.71,32.13-.05,1.63-.73,2.99-1.95,3.93-.42.32-1.11.86-2.75.86ZM100.44,140.1c-.12,0-.23,0-.34,0-1.38.06-1.97.54-2.28.89-1,1.11.43,3.9,1.09,5.05,4.42,7.7,18.26,20.23,36.11,32.71,18.14,12.68,30.16,18.2,33.17,18.2h.03c.03-.72-.46-4.41-10.83-15.41-6.36-6.75-13.16-12.75-13.23-12.81l-.04-.04c-8.68-8.02-33.25-28.6-43.67-28.6Z"/><circle class="cls-2" cx="189.3" cy="109.88" r="10.81"/><path class="cls-3" d="M189.28,123.18c-2.71,0-5.44-.82-7.8-2.53-2.88-2.09-4.77-5.17-5.33-8.68-.56-3.51.29-7.03,2.37-9.9,4.31-5.94,12.65-7.26,18.59-2.95,5.94,4.31,7.26,12.65,2.95,18.59h0c-2.6,3.58-6.67,5.48-10.79,5.48ZM189.32,101.57c-.44,0-.88.03-1.32.1-2.19.35-4.12,1.53-5.42,3.32-1.3,1.8-1.83,3.99-1.48,6.18.35,2.19,1.53,4.12,3.32,5.42,3.71,2.69,8.91,1.86,11.6-1.84,1.3-1.8,1.83-3.99,1.48-6.18-.35-2.19-1.53-4.12-3.32-5.42-1.43-1.04-3.12-1.59-4.86-1.59Z"/></svg>