<?xml version="1.0" encoding="UTF-8"?><svg id="Layer_1" xmlns="http://www.w3.org/2000/svg" viewBox="0 0 289.58 289.58"><defs><style>.cls-1{fill:#ff9640;}.cls-2{fill:#1f1f1f;}.cls-3{fill:#4dbfff;}</style></defs><path class="cls-1" d="M112.45,154.95l52.3-34.77c3.46-2.3,8.03.46,7.61,4.59l-6.27,62.36c-.36,3.59-4.33,5.58-7.42,3.72l-46.03-27.59c-3.1-1.86-3.2-6.31-.19-8.31Z"/><path class="cls-2" d="M161.2,194.05c-1.32,0-2.63-.35-3.81-1.06l-46.03-27.59c-2.2-1.32-3.54-3.63-3.6-6.19s1.18-4.93,3.31-6.35l52.3-34.77c2.41-1.6,5.45-1.67,7.93-.18,2.48,1.49,3.84,4.21,3.55,7.09l-6.27,62.36c-.25,2.54-1.77,4.74-4.05,5.89-1.06.53-2.19.79-3.33.79ZM167.45,121.85c-.4,0-.85.1-1.32.41l-52.3,34.77c-1,.67-1.09,1.67-1.08,2.07,0,.4.14,1.4,1.17,2.02l46.03,27.59c1.03.62,1.97.27,2.33.09.36-.18,1.2-.72,1.32-1.92l6.27-62.36c.14-1.41-.85-2.13-1.16-2.31-.19-.11-.66-.36-1.27-.36Z"/><path class="cls-3" d="M169.78,133.92l-23.2-1.29c-.34-.02-.68.07-.96.26l-11.72,7.79c-1.26.84-.73,2.8.78,2.89l34.07,1.9c.84.05,1.57-.58,1.66-1.42l.84-8.39c.09-.89-.58-1.68-1.48-1.73Z"/><path class="cls-2" d="M168.85,147.96c-.08,0-.15,0-.23,0l-34.07-1.9c-1.76-.1-3.25-1.3-3.71-3s.21-3.49,1.68-4.46l11.71-7.79c.73-.48,1.62-.72,2.48-.67l23.2,1.29c1.11.06,2.15.58,2.87,1.42s1.07,1.96.96,3.06l-.84,8.39c-.21,2.1-1.97,3.67-4.05,3.67ZM137.6,141.22l30.41,1.69.66-6.55-21.93-1.22-9.15,6.08ZM169.64,136.41h0,0Z"/><path class="cls-3" d="M165.72,158.64l-52.2-2.91c-1.58-.09-3,1.04-3.22,2.61-.26,1.85.52,3.82,2.33,4.9l6.76,4.05c.43.26.91.41,1.41.43l44.03,2.45c1.64.09,3.07-1.13,3.23-2.76l.54-5.4c.18-1.74-1.14-3.28-2.89-3.38Z"/><path class="cls-2" d="M165.01,172.7c-.11,0-.21,0-.32,0l-44.03-2.45c-.9-.05-1.78-.32-2.56-.78l-6.76-4.05c-2.56-1.53-3.94-4.44-3.53-7.4.4-2.83,2.94-4.92,5.84-4.76l52.2,2.91c1.51.08,2.94.79,3.93,1.94.98,1.15,1.46,2.67,1.31,4.18l-.54,5.4c-.29,2.87-2.69,5.02-5.54,5.02ZM113.35,158.23c-.28,0-.54.2-.57.47-.11.77.14,1.81,1.14,2.41l6.76,4.05c.08.05.17.08.27.08l44.03,2.45c.34.01.57-.21.61-.52l.54-5.4c.02-.2-.06-.35-.14-.43s-.2-.19-.41-.2l-52.2-2.91s-.02,0-.03,0Z"/></svg>