<?xml version="1.0" encoding="UTF-8"?><svg id="Layer_1" xmlns="http://www.w3.org/2000/svg" viewBox="0 0 289.58 289.58"><defs><style>.cls-1{fill:#525252;}.cls-2{fill:#fff;}.cls-3{fill:#1f1f1f;}</style></defs><path class="cls-2" d="M249.74,135.09c-1.63-7.3-6.68-13.34-12.09-18.51-11.19-10.71-24.64-19.04-39.2-24.31-13.66-4.94-28.15-7.16-42.61-8.49-20.16-1.85-41.04-1.92-60,5.2-18.96,7.12-35.77,22.64-39.68,42.5-1.72,8.74-.91,17.81.9,26.54.22,1.07.46,2.14.72,3.2-2.91,2.65-5.5,5.94-7.74,8.31-5.1,5.41-9.9,11.09-14.38,17.01-.63.84-1.29,1.88-.94,2.87,13.99-2.57,28.33-2.26,42.56-1.84,2.21,1.32,4.49,2.52,6.78,3.65,24.17,10.74,49.01,16.96,75.61,13.46,23.8-3.13,30.71-4.61,53.45-12.76,2.78-1,12.98-5.64,15.22-7.57,2.26-1.96,11.53-9.59,12.84-12.28,3.19-6.52,4.06-9.36,6.27-16.27,2.14-6.7,3.81-13.86,2.28-20.73Z"/><path class="cls-3" d="M144.6,209.19c-19.52,0-39.57-4.81-61.94-14.75l-.12-.06c-2.32-1.14-4.36-2.23-6.23-3.32-12.15-.36-27.07-.74-40.93,1.81l-2.92.54-1-2.79c-1.04-2.89.83-5.35,1.44-6.16,4.53-6,9.45-11.82,14.62-17.3.73-.78,1.5-1.65,2.31-2.58,1.25-1.42,2.63-2.99,4.11-4.48-.1-.45-.2-.9-.29-1.34-2.21-10.67-2.51-19.8-.91-27.93,3.85-19.57,19.91-36.85,41.89-45.1,20.98-7.88,43.91-7.03,61.55-5.41,18.04,1.65,31.45,4.33,43.48,8.68,14.96,5.41,28.94,14.08,40.43,25.07,5.06,4.85,11.13,11.53,13.08,20.28,1.76,7.86-.21,15.81-2.36,22.56l-.21.65c-2.09,6.56-3.05,9.55-6.25,16.09-1.22,2.5-5.71,6.6-12.54,12.4-.48.4-.87.74-1.16.99-2.92,2.52-13.91,7.35-16.32,8.21-23.39,8.39-30.64,9.84-54.17,12.94-5.17.68-10.34,1.02-15.55,1.02ZM85.57,188.06c27.08,12.03,50.49,16.21,73.67,13.16,23.27-3.06,29.83-4.37,52.72-12.58,3.19-1.14,12.57-5.59,14.11-6.92.29-.25.71-.6,1.2-1.02,8.08-6.86,10.33-9.31,10.79-10.16,2.96-6.06,3.81-8.71,5.86-15.12l.21-.66c1.87-5.85,3.59-12.67,2.2-18.9h0c-1.54-6.91-6.74-12.58-11.09-16.75-10.79-10.33-23.92-18.47-37.97-23.55-11.45-4.14-24.32-6.7-41.74-8.29-16.9-1.55-38.8-2.38-58.45,4.99-19.73,7.41-34.09,22.7-37.48,39.9-1.42,7.19-1.12,15.42.9,25.15.21,1.03.44,2.06.7,3.08l.49,2.02-1.53,1.4c-1.78,1.63-3.46,3.53-5.08,5.37-.87.99-1.69,1.92-2.48,2.76-3.9,4.14-7.66,8.48-11.2,12.94,12.65-1.5,25.41-1.12,36.01-.8l.91.03.78.46c1.9,1.14,4.02,2.28,6.47,3.48Z"/><path class="cls-1" d="M94.39,152v-15.76c0-.48.15-.7.62-.7h1.65c.48,0,.62.22.62.7v13.38h8.91c.33,0,.51.18.51.51v1.87c0,.33-.18.48-.55.48h-11.21c-.37,0-.55-.15-.55-.48ZM115.9,133.79c0-.48.15-.7.62-.7h1.65c.48,0,.62.22.62.7v22.61c0,.37-.15.7-.55.7h-1.8c-.4,0-.55-.22-.55-.59v-11.88h-3.37v11.76c0,.37-.15.7-.55.7h-1.8c-.4,0-.55-.22-.55-.59v-22.72c0-.48.15-.7.62-.7h1.65c.48,0,.62.22.62.7v8.06h3.37v-8.06Z"/><path class="cls-1" d="M134.99,138.4h-10.33c-.37,0-.55-.15-.55-.48v-1.87c0-.33.18-.51.51-.51h12.75c.33,0,.51.18.51.51v16.09c0,.37-.15.7-.55.7h-1.8c-.4,0-.55-.29-.55-.7v-13.75ZM145.92,145.51v10.89c0,.37-.15.7-.55.7h-1.8c-.4,0-.55-.22-.55-.59v-22.72c0-.48.15-.7.62-.7h1.65c.48,0,.62.22.62.7v8.94h3c.33,0,.51.18.51.51v1.8c0,.33-.18.48-.55.48h-2.97Z"/><path class="cls-1" d="M159.73,131.07c5.02,0,6.89,2.46,6.89,5.53v2.71c-.07,2.97-2.02,5.5-6.96,5.5-5.02-.07-6.96-2.53-6.89-5.5v-2.71c0-3.08,1.94-5.53,6.96-5.53ZM159.69,133.64c-3.04,0-4,1.61-4,3.04v2.6c0,1.39.95,2.93,4,3.01,2.97,0,4-1.58,4-3.01v-2.6c0-1.39-.95-3.04-4-3.04ZM172.26,149.77h-10.15c-.37,0-.55-.11-.55-.4v-1.72c0-.33.18-.51.51-.51h12.61c.33,0,.51.18.51.51v6.93c0,.33-.15.62-.55.62h-10.23v3.19h10.59c.33,0,.51.18.51.51v1.72c0,.29-.18.4-.55.4h-12.94c-.37,0-.55-.11-.55-.4v-7.37c0-.48.15-.7.62-.7h10.15v-2.79ZM175.23,145.07c0,.37-.15.7-.55.7h-1.8c-.4,0-.55-.22-.55-.59v-14.04c0-.48.15-.66.62-.66h1.65c.48,0,.62.22.62.7v13.89Z"/><path class="cls-1" d="M181.06,144.93h20.2c.33,0,.51.18.51.51v1.83c0,.33-.18.48-.55.48h-20.19c-.37,0-.55-.22-.55-.55v-1.69c0-.4.15-.59.59-.59ZM183.4,155.74c0-3.59,2.6-5.83,5.9-5.83h3.67c3.3,0,5.9,2.24,5.9,5.83s-2.67,5.75-5.83,5.68h-3.81c-3.15.07-5.83-2.09-5.83-5.68ZM183.59,141.52v-10.37c0-.48.11-.66.59-.66h13.93c.33,0,.51.18.51.51v1.83c0,.33-.18.48-.55.48h-11.58v5.94h11.66c.33,0,.51.18.51.51v1.87c0,.33-.18.48-.55.48h-13.85c-.44,0-.66-.15-.66-.59ZM186.26,155.74c0,1.87,1.14,2.97,3,2.97h3.74c1.87,0,3.01-1.06,3.01-2.97,0-1.72-1.14-3.04-3.08-3.04h-3.59c-1.94,0-3.08,1.25-3.08,3.04Z"/></svg>