<?xml version="1.0" encoding="UTF-8"?><svg id="Layer_1" xmlns="http://www.w3.org/2000/svg" viewBox="0 0 289.58 289.58"><defs><style>.cls-1{fill:#525252;}.cls-2{fill:#fff;}.cls-3{fill:#1f1f1f;}</style></defs><path class="cls-2" d="M249.74,135.09c-1.63-7.3-6.68-13.34-12.09-18.51-11.19-10.71-24.64-19.04-39.2-24.31-13.66-4.94-28.15-7.16-42.61-8.49-20.16-1.85-41.04-1.92-60,5.2-18.96,7.12-35.77,22.64-39.68,42.5-1.72,8.74-.91,17.81.9,26.54.22,1.07.46,2.14.72,3.2-2.91,2.65-5.5,5.94-7.74,8.31-5.1,5.41-9.9,11.09-14.38,17.01-.63.84-1.29,1.88-.94,2.87,13.99-2.57,28.33-2.26,42.56-1.84,2.21,1.32,4.49,2.52,6.78,3.65,24.17,10.74,49.01,16.96,75.61,13.46,23.8-3.13,30.71-4.61,53.45-12.76,2.78-1,12.98-5.64,15.22-7.57,2.26-1.96,11.53-9.59,12.84-12.28,3.19-6.52,4.06-9.36,6.27-16.27,2.14-6.7,3.81-13.86,2.28-20.73Z"/><path class="cls-3" d="M144.6,209.19c-19.52,0-39.57-4.81-61.94-14.75l-.12-.06c-2.32-1.14-4.36-2.23-6.23-3.32-12.15-.36-27.07-.74-40.93,1.81l-2.92.54-1.01-2.79c-1.04-2.89.83-5.35,1.44-6.16,4.53-6,9.45-11.82,14.62-17.3.73-.78,1.5-1.65,2.31-2.58,1.25-1.42,2.63-2.99,4.11-4.48-.1-.45-.2-.9-.29-1.35-2.21-10.66-2.51-19.8-.91-27.93,3.85-19.57,19.9-36.85,41.89-45.1,20.98-7.88,43.91-7.03,61.55-5.41,18.04,1.65,31.45,4.33,43.48,8.68,14.96,5.41,28.94,14.08,40.43,25.07,5.06,4.85,11.13,11.53,13.08,20.28h0c1.75,7.86-.21,15.81-2.36,22.56l-.2.64c-2.1,6.57-3.05,9.56-6.25,16.1-1.22,2.5-5.71,6.6-12.54,12.4-.48.4-.87.74-1.15.98-2.92,2.52-13.91,7.35-16.32,8.21-23.39,8.39-30.64,9.84-54.17,12.94-5.17.68-10.34,1.02-15.55,1.02ZM85.57,188.06c27.08,12.02,50.49,16.21,73.67,13.16,23.27-3.06,29.83-4.37,52.72-12.58,3.19-1.14,12.57-5.59,14.11-6.92.29-.25.71-.6,1.2-1.02,8.08-6.86,10.33-9.31,10.79-10.16,2.97-6.06,3.81-8.72,5.86-15.14l.2-.64c1.87-5.85,3.59-12.67,2.2-18.9-1.54-6.91-6.74-12.58-11.09-16.75-10.79-10.33-23.92-18.47-37.97-23.55-11.45-4.14-24.32-6.69-41.74-8.29-16.89-1.55-38.8-2.38-58.45,4.99-19.73,7.41-34.09,22.7-37.48,39.9-1.42,7.19-1.12,15.42.9,25.15.21,1.03.44,2.06.7,3.08l.49,2.02-1.53,1.4c-1.78,1.63-3.46,3.53-5.08,5.37-.87.99-1.69,1.92-2.48,2.76-3.9,4.14-7.66,8.48-11.2,12.94,12.65-1.5,25.41-1.12,36.01-.8l.91.03.78.46c1.9,1.14,4.02,2.28,6.47,3.48Z"/><path class="cls-1" d="M108.2,159.22c0,.37-.15.7-.55.7h-1.8c-.4,0-.55-.22-.55-.59v-6.67h-8.76c-.37,0-.55-.22-.55-.55v-1.69c0-.4.15-.59.59-.59h20.2c.33,0,.51.18.51.51v1.83c0,.33-.18.48-.55.48h-8.54v6.56ZM108.09,134.34h6.12c.33,0,.51.18.51.51v1.83c0,.33-.18.48-.55.48h-6.08v3.37l6.74,3.96c.4.29.44.66.18.95l-1.03,1.36c-.26.29-.55.29-.81.07l-6.49-4-6.56,4.03c-.26.22-.55.22-.81-.07l-1.06-1.39c-.26-.29-.15-.59.22-.92l6.71-3.96v-3.41h-6.05c-.37,0-.55-.22-.55-.55v-1.69c0-.4.15-.59.59-.59h6.01v-2.6c0-.48.15-.7.62-.7h1.65c.48,0,.62.22.62.7v2.6Z"/><path class="cls-1" d="M132.98,145.51h-9.6c-.37,0-.55-.15-.55-.48v-1.87c0-.33.18-.51.51-.51h9.64v-4.25h-10.34c-.37,0-.55-.15-.55-.48v-1.87c0-.33.18-.51.51-.51h12.75c.33,0,.51.18.51.51v16.09c0,.37-.15.7-.55.7h-1.8c-.4,0-.55-.29-.55-.7v-6.63ZM143.9,145.51v10.89c0,.37-.15.7-.55.7h-1.8c-.4,0-.55-.22-.55-.59v-22.72c0-.48.15-.7.62-.7h1.65c.48,0,.62.22.62.7v8.94h3c.33,0,.51.18.51.51v1.8c0,.33-.18.48-.55.48h-2.97Z"/><path class="cls-1" d="M153.13,133.68h16.31c.33,0,.51.18.51.51v1.83c0,.29-.18.4-.55.4h-2.42v9.53h2.46c.33,0,.51.18.51.51v1.83c0,.29-.18.4-.55.4h-6.71v4.8h8.69c.33,0,.51.18.51.51v1.83c0,.33-.18.48-.55.48h-20.19c-.37,0-.55-.22-.55-.55v-1.69c0-.4.15-.59.59-.59h8.61v-4.8h-6.71c-.37,0-.55-.18-.55-.48v-1.69c0-.4.15-.59.59-.59h2.38v-9.53h-2.42c-.37,0-.55-.18-.55-.48v-1.69c0-.4.15-.59.59-.59ZM158.41,136.43v9.53h5.68v-9.53h-5.68Z"/><path class="cls-1" d="M187.58,145.51h-9.6c-.37,0-.55-.15-.55-.48v-1.87c0-.33.18-.51.51-.51h9.64v-4.25h-10.33c-.37,0-.55-.15-.55-.48v-1.87c0-.33.18-.51.51-.51h12.75c.33,0,.51.18.51.51v16.09c0,.37-.15.7-.55.7h-1.8c-.4,0-.55-.29-.55-.7v-6.63ZM198.51,145.51v10.89c0,.37-.15.7-.55.7h-1.8c-.4,0-.55-.22-.55-.59v-22.72c0-.48.15-.7.62-.7h1.65c.48,0,.62.22.62.7v8.94h3c.33,0,.51.18.51.51v1.8c0,.33-.18.48-.55.48h-2.97Z"/></svg>