<svg width="30" height="30" viewBox="0 0 30 30" fill="none" xmlns="http://www.w3.org/2000/svg">
<g id="&#236;&#185;&#156;&#234;&#181;&#172; &#236;&#136;&#152;&#235;&#157;&#189;">
<path id="Vector" d="M26.375 15.625L28.125 17.3875L19.9625 25.625L15.625 21.25L17.375 19.4875L19.9625 22.0875L26.375 15.625ZM12.5 21.25L16.25 25H3.75V22.5C3.75 19.7375 8.225 17.5 13.75 17.5L16.1125 17.6375L12.5 21.25ZM13.75 5C15.0761 5 16.3479 5.52678 17.2855 6.46447C18.2232 7.40215 18.75 8.67392 18.75 10C18.75 11.3261 18.2232 12.5979 17.2855 13.5355C16.3479 14.4732 15.0761 15 13.75 15C12.4239 15 11.1521 14.4732 10.2145 13.5355C9.27678 12.5979 8.75 11.3261 8.75 10C8.75 8.67392 9.27678 7.40215 10.2145 6.46447C11.1521 5.52678 12.4239 5 13.75 5Z" fill="black"/>
</g>
</svg>
