<svg width="30" height="30" viewBox="0 0 30 30" fill="none" xmlns="http://www.w3.org/2000/svg">
<g id="&#236;&#185;&#156;&#234;&#181;&#172; &#236;&#154;&#148;&#236;&#178;&#173;">
<path id="Vector" d="M22.5 20H17.5V22.5H22.5V25L26.25 21.25L22.5 17.5V20ZM13.75 5C11 5 8.75 7.25 8.75 10C8.75 12.75 11 15 13.75 15C16.5 15 18.75 12.75 18.75 10C18.75 7.25 16.5 5 13.75 5ZM13.75 17.5C8.25 17.5 3.75 19.75 3.75 22.5V25H15.625C15.25 24 15 23 15 21.875C15 20.375 15.375 19 16.125 17.625C15.375 17.625 14.625 17.5 13.75 17.5Z" fill="black"/>
</g>
</svg>
