<svg width="40" height="40" viewBox="0 0 40 40" fill="none" xmlns="http://www.w3.org/2000/svg">
<g id="&#236;&#185;&#156;&#234;&#181;&#172;&#236;&#182;&#148;&#234;&#176;&#128;">
<path id="Vector" d="M25.0001 23.3332C20.5501 23.3332 11.6667 25.5498 11.6667 29.9998V33.3332H38.3334V29.9998C38.3334 25.5498 29.4501 23.3332 25.0001 23.3332ZM10.0001 16.6665V11.6665H6.66675V16.6665H1.66675V19.9998H6.66675V24.9998H10.0001V19.9998H15.0001V16.6665M25.0001 19.9998C26.7682 19.9998 28.4639 19.2975 29.7141 18.0472C30.9644 16.797 31.6667 15.1013 31.6667 13.3332C31.6667 11.5651 30.9644 9.86937 29.7141 8.61913C28.4639 7.36888 26.7682 6.6665 25.0001 6.6665C23.232 6.6665 21.5363 7.36888 20.286 8.61913C19.0358 9.86937 18.3334 11.5651 18.3334 13.3332C18.3334 15.1013 19.0358 16.797 20.286 18.0472C21.5363 19.2975 23.232 19.9998 25.0001 19.9998Z" fill="white"/>
</g>
</svg>
