<svg width="40" height="40" viewBox="0 0 40 40" fill="none" xmlns="http://www.w3.org/2000/svg">
<g id="mdi:medal">
<path id="Vector" d="M33.3334 3.3335H6.66675V6.66683L16.3501 13.9335C13.4113 14.9025 10.9775 16.9988 9.58369 19.7615C8.18983 22.5242 7.94994 25.7273 8.91675 28.6668C9.39507 30.123 10.1558 31.4706 11.1554 32.6325C12.155 33.7943 13.3739 34.7478 14.7423 35.4382C16.1107 36.1286 17.6018 36.5424 19.1303 36.656C20.6588 36.7696 22.1947 36.5807 23.6501 36.1002C25.9842 35.333 28.0166 33.8485 29.4573 31.8583C30.8981 29.8681 31.6738 27.4738 31.6738 25.0168C31.6738 22.5599 30.8981 20.1656 29.4573 18.1754C28.0166 16.1852 25.9842 14.7007 23.6501 13.9335L33.3334 6.66683V3.3335ZM24.9001 32.5002L20.0001 29.6335L15.1001 32.5002L16.4001 26.9502L12.0834 23.2168L17.7667 22.7335L20.0001 17.5002L22.2334 22.7335L27.9167 23.2168L23.6001 26.9502L24.9001 32.5002Z" fill="#FFC655"/>
</g>
</svg>
